<?xml version="1.0" encoding="utf-8"?>
<!-- Generator: Adobe Illustrator 18.1.1, SVG Export Plug-In . SVG Version: 6.00 Build 0)  -->
<svg version="1.1" id="Layer_1" xmlns="http://www.w3.org/2000/svg" xmlns:xlink="http://www.w3.org/1999/xlink" x="0px" y="0px"
	 width="529.2px" height="142.5px" viewBox="0 0 529.2 142.5" enable-background="new 0 0 529.2 142.5" xml:space="preserve">
<g>
	<path fill="#004F5A" d="M219.4,77.3h9.7V15.8h-9.7v-4.7h25.9v4.7h-9.8v61.5h9.8V82h-25.9V77.3z"/>
	<path fill="#004F5A" d="M249.2,77.3h9.9v-40h-9.9v-4.7H265v7.6c7-5.3,14.3-8.4,20.3-8.4c8.4,0,14.6,4.8,14.6,12.8v32.6h8.7V82
		h-24.2v-4.7h9.6V46.2c0-6.4-3.4-9.4-9-9.4c-5.9,0-13.7,3.4-20,8.9v31.6h8.8V82h-24.7L249.2,77.3L249.2,77.3z"/>
</g>
<rect x="206.1" y="1.5" fill="#F26522" width="2.4" height="93.9"/>
<rect x="206.2" y="93.5" fill="#F26522" width="320.2" height="2.4"/>
<rect x="3" y="0" fill="#F26522" width="205.6" height="2.4"/>
<g>
	<path fill="#8DC63F" d="M314.1,77.6h10.5V16h-10.5v-4.7h27.3V16H331v61.5h32V54h6v28.2h-54.9L314.1,77.6L314.1,77.6z"/>
	<path fill="#8DC63F" d="M373.2,77.6h9.5v-40h-9.5v-4.7h15.4v44.7h9.2v4.7h-24.7V77.6z M384,10.2c2.5,0,4.7,1.9,4.7,4.2
		c0,2.3-2.2,4.3-4.7,4.3c-2.5,0-4.6-2-4.6-4.3C379.4,12.1,381.5,10.2,384,10.2z"/>
	<path fill="#8DC63F" d="M399.8,77.6h9.9v-40h-9.9v-4.7h15.9v7.6c7-5.3,14.3-8.4,20.3-8.4c8.4,0,14.6,4.8,14.6,12.8v32.6h8.7v4.7
		h-24.2v-4.7h9.6V46.4c0-6.4-3.4-9.4-9-9.4c-5.9,0-13.7,3.4-20,8.9v31.6h8.8v4.7h-24.7L399.8,77.6L399.8,77.6z"/>
	<path fill="#8DC63F" d="M470.2,58.7c0,11.4,10.2,20.6,22.7,20.6c8.3,0,15.9-3.9,21.1-10.8l4.7,2c-5.3,8.1-15.3,13.2-26.5,13.2
		c-16.3,0-28-10.9-28-26.1s11.4-26.1,27.5-26.1c15.9,0,26.6,10.8,26.9,27.3L470.2,58.7L470.2,58.7z M512.5,54
		c-2.1-11.4-9.9-18-21.2-18c-11.1,0-19,6.8-21,18H512.5z"/>
</g>
<g>
	<g>
		<path fill="#8DC63F" d="M8.7,120.8l3.8,12.2h0.1l3.8-12.2h4.9l-6.2,17.4H10l-6.2-17.4L8.7,120.8L8.7,120.8z"/>
		<path fill="#8DC63F" d="M37.9,134.1c-0.7,1.5-1.7,2.6-2.9,3.3c-1.2,0.8-2.5,1.2-4,1.2c-4,0-7.4-3-7.4-6.9c0-3.6,3.1-7,7.3-7
			s7.4,3.1,7.4,7.1c0,0.5-0.1,0.7-0.1,1H27.7c0.3,1.5,1.6,2.5,3.3,2.5c1.3,0,2-0.5,2.5-1.2L37.9,134.1L37.9,134.1z M34.2,130.2
			c-0.2-0.8-1-2.2-3.2-2.2s-3,1.5-3.2,2.2H34.2z"/>
		<path fill="#8DC63F" d="M49.5,125.1h2v3h-2v10.1h-4.2v-10.1h-2.1v-3h2.1v-4.3h4.2V125.1z"/>
		<path fill="#8DC63F" d="M70.7,134.1c-0.7,1.5-1.7,2.6-2.9,3.3c-1.2,0.8-2.5,1.2-4,1.2c-4,0-7.4-3-7.4-6.9c0-3.6,3.1-7,7.3-7
			s7.4,3.1,7.4,7.1c0,0.5-0.1,0.7-0.1,1H60.6c0.3,1.5,1.6,2.5,3.3,2.5c1.3,0,2-0.5,2.5-1.2L70.7,134.1L70.7,134.1z M67,130.2
			c-0.2-0.8-1-2.2-3.2-2.2c-2.2,0-3,1.5-3.2,2.2H67z"/>
		<path fill="#8DC63F" d="M77.3,125.1h3.9v1.4h0.1c0.4-0.6,1.1-1.8,3.5-1.8v3.9c-1.9,0-3.3,0.4-3.3,2.4v7.2h-4.2V125.1z"/>
		<path fill="#8DC63F" d="M95,123.8h-4.2v-3H95V123.8z M95,138.2h-4.2v-13H95V138.2z"/>
		<path fill="#8DC63F" d="M101.9,125.1h3.9v1.4h0.1c0.4-0.6,1.3-1.8,3.8-1.8c1.3,0,2.8,0.5,3.6,1.1c0.8,0.6,1.6,1.6,1.6,4.2v8.1
			h-4.2v-7.1c0-0.9,0-2.7-2.2-2.7c-2.4,0-2.4,1.9-2.4,2.7v7.1h-4.2V125.1z"/>
		<path fill="#8DC63F" d="M136.4,138.2h-4.2v-1.4h-0.1c-0.7,1.3-2.4,1.9-4.1,1.9c-4.4,0-7-3.2-7-7c0-4.3,3.3-6.9,7-6.9
			c2.3,0,3.6,1,4.1,1.8h0.1v-1.4h4.2V138.2z M128.7,135c2.6,0,3.5-2.1,3.5-3.3c0-1.6-1.2-3.3-3.5-3.3c-2.4,0-3.5,1.9-3.5,3.4
			C125.2,132.9,126.2,135,128.7,135z"/>
		<path fill="#8DC63F" d="M143.2,125.1h3.9v1.4h0.1c0.4-0.6,1.1-1.8,3.5-1.8v3.9c-1.9,0-3.3,0.4-3.3,2.4v7.2h-4.2V125.1z"/>
		<path fill="#8DC63F" d="M170.2,125.1l-7,17.4h-4.4l2.2-5l-5.2-12.4h4.5l2.8,7.6h0.1l2.7-7.6H170.2z"/>
		<path fill="#8DC63F" d="M194.7,125.9c-0.1-0.6-0.3-1.7-1.7-1.7c-0.8,0-1.6,0.5-1.6,1.4c0,1,0.5,1.2,3.9,2.6c3.5,1.5,4.4,3,4.4,5
			c0,2.5-1.6,5.3-6.5,5.3c-5.4,0-6.7-3.3-6.7-5.5v-0.6h4.7c0,2,1.3,2.4,1.9,2.4c1.1,0,1.8-0.9,1.8-1.7c0-1.1-0.8-1.4-3.7-2.6
			c-1.3-0.5-4.6-1.7-4.6-5c0-3.3,3.4-5.1,6.5-5.1c1.8,0,3.8,0.6,5,2c1.1,1.3,1.2,2.4,1.2,3.4L194.7,125.9L194.7,125.9z"/>
		<path fill="#8DC63F" d="M220.2,138.2H216v-1.4H216c-0.7,1.3-2.4,1.9-4.1,1.9c-4.4,0-7-3.2-7-7c0-4.3,3.3-6.9,7-6.9
			c2.3,0,3.6,1,4.1,1.8h0.1v-1.4h4.2V138.2z M212.5,135c2.6,0,3.5-2.1,3.5-3.3c0-1.6-1.2-3.3-3.5-3.3c-2.4,0-3.5,1.9-3.5,3.4
			C209.1,132.9,210,135,212.5,135z"/>
		<path fill="#8DC63F" d="M227.3,128.1h-1.6v-3h1.6v-0.7c0-3.7,3.3-4,5.3-4h0.6v2.9h-0.5c-0.4,0-1.3,0.1-1.3,1.2v0.5h1.8v3h-1.8
			v10.1h-4.2L227.3,128.1L227.3,128.1z"/>
		<path fill="#8DC63F" d="M252.4,134.1c-0.7,1.5-1.7,2.6-2.9,3.3c-1.2,0.8-2.5,1.2-4,1.2c-4,0-7.4-3-7.4-6.9c0-3.6,3.1-7,7.3-7
			s7.4,3.1,7.4,7.1c0,0.5-0.1,0.7-0.1,1h-10.5c0.3,1.5,1.6,2.5,3.3,2.5c1.3,0,2-0.5,2.5-1.2L252.4,134.1L252.4,134.1z M248.7,130.2
			c-0.2-0.8-1-2.2-3.2-2.2s-3,1.5-3.2,2.2H248.7z"/>
		<path fill="#8DC63F" d="M264,125.1h2v3h-2v10.1h-4.2v-10.1h-2.1v-3h2.1v-4.3h4.2L264,125.1L264,125.1z"/>
		<path fill="#8DC63F" d="M284.6,125.1l-7,17.4h-4.4l2.2-5l-5.2-12.4h4.5l2.8,7.6h0.1l2.7-7.6H284.6z"/>
		<path fill="#8DC63F" d="M318.5,128l-1.4,3.2c-0.4,0.8-0.8,1.6-1.4,2.3l2.5,2.4l-2.8,2.6l-2.2-2.1c-0.7,0.6-2.6,2.1-5.6,2.1
			c-3.5,0-6.2-2.2-6.2-5c0-2.6,2.1-3.9,3.5-4.8c-1.3-1.2-1.8-2.5-1.8-3.8c0-2.5,2.3-4.5,5.2-4.5s4.9,1.9,4.9,4.3
			c0,2.3-1.8,3.4-2.6,4l2.2,2.1l1.4-2.8L318.5,128L318.5,128z M307.4,131c-0.6,0.4-1.4,1.1-1.4,2c0,1.1,1,1.7,2.1,1.7
			c1.3,0,1.9-0.5,2.3-0.9L307.4,131z M309.4,124.7c0-0.6-0.4-1.1-1.1-1.1c-0.6,0-1.1,0.4-1.1,1.1c0,0.8,0.6,1.5,1.1,1.9
			C308.8,126.1,309.4,125.6,309.4,124.7z"/>
		<path fill="#8DC63F" d="M354.9,131.7c-1.1,4.1-4.9,6.8-9.4,6.8c-5.8,0-9.8-4.3-9.8-9c0-4.4,3.7-9,9.8-9c5.8,0,9,4.2,9.5,6.9h-5
			c-0.5-1.3-1.9-3-4.5-3c-3.2,0-5,2.6-5,5.1c0,2.6,1.9,5.2,5,5.2c3,0,4.2-2.3,4.5-2.9L354.9,131.7L354.9,131.7z"/>
		<path fill="#8DC63F" d="M368,124.7c5.1,0,7.5,3.7,7.5,6.9c0,3.2-2.4,6.9-7.5,6.9s-7.5-3.7-7.5-6.9
			C360.4,128.4,362.9,124.7,368,124.7z M368,134.9c1.8,0,3.4-1.4,3.4-3.3c0-1.9-1.5-3.3-3.4-3.3s-3.4,1.4-3.4,3.3
			C364.6,133.5,366.2,134.9,368,134.9z"/>
		<path fill="#8DC63F" d="M381.7,125.1h3.9v1.4h0.1c0.3-0.5,1.2-1.8,3.9-1.8c1.2,0,2.9,0.4,4,2.3c0.9-1.3,2.3-2.3,4.4-2.3
			c1,0,2.5,0.2,3.7,1.3c1.3,1.3,1.5,2.2,1.5,5v7.1H399v-6.9c0-1.1,0-2.9-2.1-2.9c-2.3,0-2.3,2-2.3,2.7v7.1h-4.2v-7.1
			c0-0.7,0-2.7-2.1-2.7c-2.4,0-2.4,2.1-2.4,2.9v6.9h-4.2L381.7,125.1L381.7,125.1z"/>
		<path fill="#8DC63F" d="M410,125.1h3.9v1.4h0h0.1c0.8-1,2.2-1.9,4.4-1.9c5,0,6.8,4.1,6.8,7.1c0,3.7-2.8,6.8-6.8,6.8
			c-2.5,0-3.7-1.1-4.2-1.6v5.5H410L410,125.1L410,125.1z M421,131.7c0-1.5-1.2-3.3-3.5-3.3c-2.3,0-3.5,1.8-3.5,3.3
			c0,1.6,1.3,3.3,3.5,3.3C419.7,135,421,133.3,421,131.7z"/>
		<path fill="#8DC63F" d="M431.4,120.8h4.2v17.4h-4.2V120.8z"/>
		<path fill="#8DC63F" d="M446.7,123.8h-4.2v-3h4.2V123.8z M446.7,138.2h-4.2v-13h4.2V138.2z"/>
		<path fill="#8DC63F" d="M468.2,138.2H464v-1.4H464c-0.7,1.3-2.4,1.9-4.1,1.9c-4.4,0-7-3.2-7-7c0-4.3,3.3-6.9,7-6.9
			c2.3,0,3.6,1,4.1,1.8h0.1v-1.4h4.2V138.2z M460.5,135c2.6,0,3.5-2.1,3.5-3.3c0-1.6-1.2-3.3-3.5-3.3c-2.4,0-3.5,1.9-3.5,3.4
			C457.1,132.9,458,135,460.5,135z"/>
		<path fill="#8DC63F" d="M475.1,125.1h3.9v1.4h0.1c0.4-0.6,1.3-1.8,3.8-1.8c1.3,0,2.8,0.5,3.6,1.1c0.8,0.6,1.6,1.6,1.6,4.2v8.1
			h-4.2v-7.1c0-0.9,0-2.7-2.2-2.7c-2.4,0-2.4,1.9-2.4,2.7v7.1h-4.2V125.1z"/>
		<path fill="#8DC63F" d="M509,133.2c-0.8,3-3.6,5.4-7.3,5.4c-4.2,0-7.5-3.1-7.5-7c0-3.8,3.2-6.9,7.4-6.9c3.7,0,6.7,2.3,7.4,5.5
			h-4.2c-0.5-0.9-1.3-1.8-3-1.8c-2-0.1-3.3,1.4-3.3,3.3c0,1.9,1.3,3.3,3.3,3.3c1.7,0,2.6-0.9,3-1.7H509z"/>
		<path fill="#8DC63F" d="M528.7,134.1c-0.7,1.5-1.7,2.6-2.9,3.3c-1.2,0.8-2.5,1.2-4,1.2c-4,0-7.4-3-7.4-6.9c0-3.6,3.1-7,7.3-7
			c4.3,0,7.4,3.1,7.4,7.1c0,0.5-0.1,0.7-0.1,1h-10.5c0.3,1.5,1.6,2.5,3.3,2.5c1.3,0,2-0.5,2.5-1.2L528.7,134.1L528.7,134.1z
			 M525,130.2c-0.2-0.8-1-2.2-3.2-2.2c-2.2,0-3,1.5-3.2,2.2H525z"/>
	</g>
</g>
<g>
	<path fill="#1C6774" d="M53.5,71c0.7,1.8,2,3.3,3.1,4c2.1,1.5,4.1,3,5.6,3.9c-0.5-0.6-2.7-2.7-3.3-4.5c0,0-12.2-36.6-18.1-54.4
		h-0.1h-4.2L53.5,71L53.5,71z"/>
	<path fill="#1C6774" d="M64.2,78c0.7,1.8,2,3.3,3.1,4c2.1,1.5,4.1,3,5.6,3.9c-0.5-0.6-2.7-2.7-3.3-4.5c0,0-14.5-43.5-20.4-61.3
		h-0.1H45L64.2,78L64.2,78z"/>
	<path fill="#1C6774" d="M74.6,84c0.7,1.8,2.1,3.3,3.1,4c2.1,1.5,4.2,3,5.6,3.9c-0.5-0.5-2.7-2.7-3.3-4.5c0,0-16.5-49.5-22.3-67.3
		h-0.1h-4.2L74.6,84L74.6,84z"/>
</g>
<g>
	<path fill="#3F5962" d="M73.1,54.2l10.4-34.1h4.2l0,0c0,0.4-12.4,40.7-12.4,40.7l0,0L73.1,54.2L73.1,54.2z"/>
	<path fill="#3F5962" d="M77.5,67.2l14.4-47.2h4.2l0,0c0,0.4-16.4,53.7-16.4,53.7l0,0L77.5,67.2L77.5,67.2z"/>
	<path fill="#3F5962" d="M81.9,80.7l18.5-60.6h4.2c0,0.4-20.5,67.2-20.5,67.2l0,0L81.9,80.7L81.9,80.7z"/>
</g>
<polygon fill="#3F5962" points="112.7,79.5 112.7,23.2 129.1,79.5 133.7,79.5 148.8,23.2 148.8,79.5 152.6,79.5 152.6,20.1 
	145.9,20.1 131.4,74.6 115.6,20.1 108.9,20.1 108.9,79.5 "/>
<path fill="#3F5962" d="M34,61.3c-0.3,7.3-3.6,15.5-13.6,15.5c-9.5,0-16.3-8.6-16.3-26.3c0-16.1,4.4-27.7,16.3-27.7
	C30.9,22.8,34,33,34,39.8h3.9C38,29.4,32.2,19,20.3,19C6.5,19,0,31.6,0,49.8c0,19.8,7.8,30.8,20.3,30.8c12,0,17.6-10,17.6-19.3
	L34,61.3L34,61.3z"/>
<path fill="#3F5962" d="M183.9,56.3h-8.3V60h9.6l5.7,19.5h4.2l-17.3-59.4h-2.1v4.8L183.9,56.3z M175.5,56.3h-8.3l8.3-31.4l0,0v-4.8
	h-2.2l-17.2,59.4h4.2L166,60h9.5V56.3z"/>
</svg>
