<svg xmlns="http://www.w3.org/2000/svg" width="259.854" height="65.471" viewBox="0 0 259.854 65.471">
  <g id="flora-fresh-logo-lt-grn_Horiz" transform="translate(-6.527 -2.31)">
    <path id="Path_1" data-name="Path 1" d="M408.045,158.561H397.689v7.857h8.952v1.908h-8.952v8.055H395.64V156.66h12.4Z" transform="translate(-313.88 -124.507)" fill="#304d3b"/>
    <path id="Path_2" data-name="Path 2" d="M475.449,174.473h10.692v1.908H473.4V156.66h2.049Z" transform="translate(-376.606 -124.507)" fill="#304d3b"/>
    <path id="Path_3" data-name="Path 3" d="M556.834,172.635a10.017,10.017,0,0,1-7.347,2.9,9.9,9.9,0,0,1-7.347-2.9,9.724,9.724,0,0,1-2.891-7.185,10.379,10.379,0,0,1,17.594-7.241,10.406,10.406,0,0,1-.01,14.425Zm-13.2-1.321a8.586,8.586,0,0,0,11.7,0,7.874,7.874,0,0,0,2.32-5.837,8.111,8.111,0,0,0-2.343-5.92,8.368,8.368,0,0,0-11.647,0,8.051,8.051,0,0,0-2.349,5.924,7.821,7.821,0,0,0,2.316,5.837Z" transform="translate(-429.724 -123.402)" fill="#304d3b"/>
    <path id="Path_4" data-name="Path 4" d="M674.992,176.389,670,169.881h-4.8v6.51H663.15V156.67h6.9a7.265,7.265,0,0,1,5.149,1.839,6.189,6.189,0,0,1,1.978,4.756,6.334,6.334,0,0,1-4.855,6.342l5.249,6.792Zm-9.795-17.82v9.4H670a5.236,5.236,0,0,0,3.689-1.305,4.457,4.457,0,0,0,1.421-3.44,4.36,4.36,0,0,0-1.4-3.382,5.267,5.267,0,0,0-3.7-1.276Z" transform="translate(-529.669 -124.515)" fill="#304d3b"/>
    <path id="Path_5" data-name="Path 5" d="M766.433,175.179l-2.15-4.714H753.776l-2.16,4.714H749.49L758.7,155.17h.675l9.205,20.009Zm-11.794-6.624H763.4l-4.377-9.625Z" transform="translate(-599.316 -123.306)" fill="#304d3b"/>
    <path id="Path_6" data-name="Path 6" d="M922.809,158.561H912.45v7.857H921.4v1.908H912.45v8.055H910.4V156.66h12.4Z" transform="translate(-729.115 -124.507)" fill="#304d3b"/>
    <path id="Path_7" data-name="Path 7" d="M1005.9,176.389l-5-6.508h-4.8v6.51H994.06V156.67h6.9a7.263,7.263,0,0,1,5.151,1.839,6.2,6.2,0,0,1,1.978,4.756,6.334,6.334,0,0,1-4.855,6.342l5.249,6.792Zm-9.795-17.82v9.4h4.8a5.234,5.234,0,0,0,3.691-1.305,4.455,4.455,0,0,0,1.417-3.44,4.358,4.358,0,0,0-1.4-3.382,5.271,5.271,0,0,0-3.7-1.276Z" transform="translate(-796.6 -124.515)" fill="#304d3b"/>
    <path id="Path_8" data-name="Path 8" d="M1102.521,158.569H1091.83v7.662h9.344v1.91h-9.344v6.342h10.692v1.908H1089.78V156.67h12.741Z" transform="translate(-873.813 -124.516)" fill="#304d3b"/>
    <path id="Path_9" data-name="Path 9" d="M1179.1,175.575a12.9,12.9,0,0,1-4-.632,7.542,7.542,0,0,1-2.96-1.614l1.067-1.8a6.448,6.448,0,0,0,2.595,1.572,10.053,10.053,0,0,0,3.5.646,5.2,5.2,0,0,0,3.171-.841,2.8,2.8,0,0,0,1.121-2.386,2.972,2.972,0,0,0-1.052-2.33,9.04,9.04,0,0,0-3.438-1.6,11.237,11.237,0,0,1-4.673-2.287,4.741,4.741,0,0,1-1.417-3.579,4.835,4.835,0,0,1,1.754-3.942,7.268,7.268,0,0,1,4.758-1.446,10.476,10.476,0,0,1,5.669,1.881l-1.094,1.74a7.5,7.5,0,0,0-4.745-1.8,4.864,4.864,0,0,0-3.184.94,3.216,3.216,0,0,0-1.137,2.624,2.759,2.759,0,0,0,1.038,2.32,13.593,13.593,0,0,0,4.014,1.7,10.024,10.024,0,0,1,4.209,2.189,4.585,4.585,0,0,1,1.319,3.4,4.7,4.7,0,0,1-1.725,3.867A7.338,7.338,0,0,1,1179.1,175.575Z" transform="translate(-940.249 -123.443)" fill="#304d3b"/>
    <path id="Path_10" data-name="Path 10" d="M1279.866,156.62h2.05v19.721h-2.05v-8.434h-12.349v8.447h-2.047V156.634h2.047v9.36h12.349Z" transform="translate(-1015.534 -124.475)" fill="#304d3b"/>
    <path id="Path_11" data-name="Path 11" d="M396.225,94.086H398.3v.568h-2.075v1.792H398.3v.58h-2.74V91.76H398.3v.568h-2.071Z" transform="translate(-313.816 -72.155)" fill="#304d3b"/>
    <path id="Path_12" data-name="Path 12" d="M415.8,95.2a.854.854,0,0,0,.932.915.922.922,0,0,0,1.009-.891c0-.458-.238-.671-1.065-.947a2.663,2.663,0,0,1-1.065-.528,1.311,1.311,0,0,1-.41-1,1.567,1.567,0,0,1,3.132.008h-.663a1,1,0,0,0-.126-.543.916.916,0,0,0-.773-.371.841.841,0,0,0-.891.858.733.733,0,0,0,.3.609,3.066,3.066,0,0,0,.843.369,2.437,2.437,0,0,1,1.042.568,1.354,1.354,0,0,1,.356.93,1.513,1.513,0,0,1-1.657,1.524,1.484,1.484,0,0,1-1.4-.71,1.285,1.285,0,0,1-.182-.686v-.11Z" transform="translate(-329.641 -71.744)" fill="#304d3b"/>
    <path id="Path_13" data-name="Path 13" d="M438.009,97.027h-.655v-4.7H436V91.76h3.337v.568H438Z" transform="translate(-346.437 -72.155)" fill="#304d3b"/>
    <path id="Path_14" data-name="Path 14" d="M455.16,95.831l-.478,1.22H454l1.98-5.261h.789l1.933,5.261h-.742l-.433-1.214Zm1.191-3.211-1,2.643h1.957Z" transform="translate(-360.957 -72.18)" fill="#304d3b"/>
    <path id="Path_15" data-name="Path 15" d="M485.373,91.76c1.071,0,1.68.5,1.68,1.4a1.274,1.274,0,0,1-.3.86,1.16,1.16,0,0,1-.538.338,1.328,1.328,0,0,1,.6.244,1.253,1.253,0,0,1,.435,1.011,1.332,1.332,0,0,1-.568,1.143,2.268,2.268,0,0,1-1.309.269H483.89V91.76Zm-.822,2.367h.671a1.325,1.325,0,0,0,.86-.2.928.928,0,0,0,.323-.727.82.82,0,0,0-.418-.756,1.933,1.933,0,0,0-.891-.128h-.545Zm0,2.359h.663a1.744,1.744,0,0,0,.994-.174.785.785,0,0,0,.387-.742c0-.63-.371-.907-1.206-.907h-.829Z" transform="translate(-385.068 -72.155)" fill="#304d3b"/>
    <path id="Path_16" data-name="Path 16" d="M510.934,96.422v.605H508.42V91.76h.663v4.662Z" transform="translate(-404.855 -72.155)" fill="#304d3b"/>
    <path id="Path_17" data-name="Path 17" d="M528.531,97.027h-.661V91.76h.661Z" transform="translate(-420.545 -72.155)" fill="#304d3b"/>
    <path id="Path_18" data-name="Path 18" d="M538.931,95.2a.854.854,0,0,0,.932.915.922.922,0,0,0,1.009-.891c0-.458-.238-.671-1.065-.947a2.663,2.663,0,0,1-1.065-.528,1.311,1.311,0,0,1-.41-1,1.567,1.567,0,0,1,3.132.008H540.8a1,1,0,0,0-.126-.543.917.917,0,0,0-.773-.371.841.841,0,0,0-.891.858.733.733,0,0,0,.3.609,3.058,3.058,0,0,0,.845.369,2.417,2.417,0,0,1,1.04.568,1.353,1.353,0,0,1,.356.93,1.513,1.513,0,0,1-1.657,1.524,1.482,1.482,0,0,1-1.4-.71,1.286,1.286,0,0,1-.182-.686v-.11Z" transform="translate(-428.965 -71.744)" fill="#304d3b"/>
    <path id="Path_19" data-name="Path 19" d="M562.8,97.027h-.661V91.76h.661v2.367h2.564V91.76h.663v5.267h-.663v-2.32H562.8Z" transform="translate(-448.189 -72.155)" fill="#304d3b"/>
    <path id="Path_20" data-name="Path 20" d="M591.4,94.086h2.075v.568H591.4v1.792h2.075v.58H590.74V91.76h2.736v.568H591.4Z" transform="translate(-471.259 -72.155)" fill="#304d3b"/>
    <path id="Path_21" data-name="Path 21" d="M612.4,91.76h1.4a2.347,2.347,0,0,1,2.541,2.548,2.738,2.738,0,0,1-.829,2.106,2.577,2.577,0,0,1-1.831.613H612.4Zm.663,4.687h.236a2.378,2.378,0,0,0,1.649-.387,2.1,2.1,0,0,0,.71-1.74,1.765,1.765,0,0,0-1.885-2h-.71Z" transform="translate(-488.731 -72.155)" fill="#304d3b"/>
    <path id="Path_22" data-name="Path 22" d="M655.4,93.349v-.6l1.783-1.16v5.3h-.623V92.576Z" transform="translate(-523.417 -72.018)" fill="#304d3b"/>
    <path id="Path_23" data-name="Path 23" d="M676.893,94.849a1.3,1.3,0,0,1-.5.1,1.56,1.56,0,0,1-1.57-1.593,1.676,1.676,0,0,1,1.705-1.68,1.62,1.62,0,0,1,1.655,1.655,2.043,2.043,0,0,1-.364,1.145L676.3,96.961h-.733Zm-1.46-1.516a1.058,1.058,0,1,0,1.083-1.071,1.069,1.069,0,0,0-1.083,1.071Z" transform="translate(-539.081 -72.089)" fill="#304d3b"/>
    <path id="Path_24" data-name="Path 24" d="M700.314,94.457a1.4,1.4,0,0,1,.387,1.019,1.559,1.559,0,0,1-1.647,1.593,1.571,1.571,0,0,1-1.239-2.6,1.245,1.245,0,0,1,.617-.356,1.011,1.011,0,0,1-.537-.346,1.222,1.222,0,0,1-.267-.773,1.341,1.341,0,0,1,1.45-1.3,1.317,1.317,0,0,1,1.429,1.293,1.228,1.228,0,0,1-.292.8,1.071,1.071,0,0,1-.522.323A1.239,1.239,0,0,1,700.314,94.457Zm-2.256,1.011a1.016,1.016,0,1,0,0-.01Zm.182-2.461a.814.814,0,0,0,.835.8.849.849,0,0,0,.853-.8.82.82,0,0,0-.837-.773.771.771,0,0,0-.851.756Z" transform="translate(-557.318 -72.099)" fill="#304d3b"/>
    <path id="Path_25" data-name="Path 25" d="M719.78,95.539V95.05l2.707-3.66v3.581h.622v.568h-.615v1.189h-.609V95.545Zm2.106-2.579-1.473,2.011h1.473Z" transform="translate(-575.35 -71.857)" fill="#304d3b"/>
    <rect id="Rectangle_2" data-name="Rectangle 2" width="115.424" height="0.729" transform="translate(150.957 21.809)" fill="#dc90ac"/>
    <path id="Path_26" data-name="Path 26" d="M167.857,242.48c-.35.106-.6.164-.831.255l-.236.083a1.354,1.354,0,0,1,.566.694l.323-.52A2.909,2.909,0,0,0,167.857,242.48Z" transform="translate(-129.277 -193.735)" fill="#598d69"/>
    <path id="Path_27" data-name="Path 27" d="M156.49,210.355l-.789.253a2.315,2.315,0,0,1-1.73,2.4,10.367,10.367,0,0,1-1.752.516,5.9,5.9,0,0,1,2.291,1.609,2.317,2.317,0,0,1-.493-.133c-.6-.36-1.179-.744-1.779-1.1a2.616,2.616,0,0,0-.636-.276,7.1,7.1,0,0,1-1.034.046,1.713,1.713,0,0,0-.58.406,1.208,1.208,0,0,0,.269,1.978c.095.056.193.106.275.153a4.766,4.766,0,0,1,1.74.242,3.7,3.7,0,0,0,.447-.143c-.449-.112-.882-.22-1.315-.334-.031,0-.05-.062-.193-.236.655.048,1.2.064,1.74.133a1.7,1.7,0,0,0,1.908-.882c.773-1.547,1.508-3.094,2.347-4.834C156.841,210.251,156.664,210.3,156.49,210.355Z" transform="translate(-115.402 -167.656)" fill="#598d69"/>
    <path id="Path_28" data-name="Path 28" d="M141.72,236.719a4.145,4.145,0,0,0-.636.209c-.193.07-.373.153-.559.23l-.07-.147c-.532.876-1.058,1.754-1.589,2.629a2.126,2.126,0,0,1-.414.682q-.45.737-.909,1.467c-.773,1.214-1.614,2.378-2.38,3.594a37.219,37.219,0,0,0-3.664,7.828,23.559,23.559,0,0,1,3.641-2.109c1.324-.613,2.591-1.353,3.88-2.046a1.922,1.922,0,0,0,.282-.246c-.246-.056-.414-.106-.58-.133a2.265,2.265,0,0,1-1.75-1.143,1.168,1.168,0,0,1,.064-1.423,1.55,1.55,0,0,1,1.547-.275,4.273,4.273,0,0,1,1.469,2.392,1.593,1.593,0,0,1-.251-.249c-.236-.42-.452-.851-.69-1.27a1.166,1.166,0,0,0-1.411-.667.833.833,0,0,0-.518,1.278,1.705,1.705,0,0,0,1.392,1c-.23-.222-.454-.437-.675-.654-.015-.015-.01-.054-.029-.2.375.253.7.45.994.675a1.175,1.175,0,0,0,1.448.126c.994-.655,1.968-1.342,3.068-2.1-.255-.06-.377-.093-.5-.12a10.269,10.269,0,0,1-3.793-1.328,1.429,1.429,0,0,1-.787-1.143,1.317,1.317,0,0,1,1.04-1.373,3.223,3.223,0,0,1,3.08.791,11.642,11.642,0,0,1,1.3,1.232,9.07,9.07,0,0,1,.741,1.116l2.355-2.283c-.567-.041-1.017-.039-1.456-.112a13.509,13.509,0,0,1-2.106-.454,2.292,2.292,0,0,1-.951-.748c-.46-.58-.1-1.288.682-1.547-.265-.064-.53-.141-.793-.224a4.758,4.758,0,0,1-1.4-.748c-.431-.329-.35-.75.164-.994-.218,1.218.806,1.22,1.483,1.483a5.83,5.83,0,0,0,1.754.294,2.367,2.367,0,0,0,1.4-.367,2.426,2.426,0,0,1-.74-.831,1.647,1.647,0,0,1-.151-.358,5.255,5.255,0,0,1-1.773-.1c.213-.358.949-.456,1.723-.255a1,1,0,0,1,.489-.827,2.414,2.414,0,0,0-.34-.168A5.4,5.4,0,0,0,141.72,236.719Z" transform="translate(-100.81 -189.02)" fill="#598d69"/>
    <path id="Path_29" data-name="Path 29" d="M126.534,255.229a33.834,33.834,0,0,0-.4,4.578l.4-.305a36.743,36.743,0,0,1,4.942-10.038c.58-.829,1.137-1.686,1.674-2.55a6.286,6.286,0,0,1-2.285.58,4.77,4.77,0,0,1-1.585-.137c-.524-.131-.617-.553-.238-.978.276,1.206,1.222.8,1.947.773a5.873,5.873,0,0,0,1.727-.42,2.374,2.374,0,0,0,.932-.624l.433-.7a1.187,1.187,0,0,0,.052-.624c-.056-.246-.387-.5-.793-.69a3.062,3.062,0,0,1-1.767-.228,5.044,5.044,0,0,0-2.419.822,4.182,4.182,0,0,0-.5.445c-.147.137-.284.286-.423.429l-.122-.106c-.265,1.846-.5,3.7-.8,5.539C127.083,252.406,126.76,253.81,126.534,255.229Zm6.419-10.472a3.692,3.692,0,0,1-2.053.949C130.967,245.2,131.923,244.74,132.953,244.757Z" transform="translate(-96.478 -194.848)" fill="#598d69"/>
    <path id="Path_30" data-name="Path 30" d="M138.1,168.287a5.358,5.358,0,0,0-4,1.773,1.39,1.39,0,0,0-.263.945c.193,1.879.553,3.747.632,5.626.091,2.171-.048,4.35-.087,6.525v.619l1.382-.748a5.087,5.087,0,0,1,1.386-.51,1.6,1.6,0,0,1-.667-1.645,1.986,1.986,0,0,1,.75-1.023,6.552,6.552,0,0,1-.967-.193,4.141,4.141,0,0,1-.412-.164l.035-.155c.257.037.518.06.773.11a6.941,6.941,0,0,0,1.046.12,1.535,1.535,0,0,1,.537-.151,1.883,1.883,0,0,1,.636.1,10.61,10.61,0,0,0,2.2-.52,1.878,1.878,0,0,0,1.475-2.02,16.238,16.238,0,0,1-2.647.607c.073.054.145.116.217.162l-.1.213-5.068-.259-.029-.259a1.5,1.5,0,0,1,.485-.159c.468.014.934.029,1.4.046a1.63,1.63,0,0,1-.566-.555,1.916,1.916,0,0,1-.307-1.234q-.315.255-.619.545a4.452,4.452,0,0,0-.5.795.9.9,0,0,1,.307-1.282,10.422,10.422,0,0,1,1.063-.8,2.629,2.629,0,0,1,.373-.493,4.683,4.683,0,0,1,4.447-1.218,17.184,17.184,0,0,1,2.513.615,13.964,13.964,0,0,1,1.73.872c.414-1.429.843-2.914,1.319-4.561-.741.356-1.307.683-1.91.907a19.152,19.152,0,0,1-2.972.942,3.353,3.353,0,0,1-1.74-.259,1.69,1.69,0,0,1-.178-.083,2.133,2.133,0,0,1-1.493.845,6.693,6.693,0,0,1-3.766-.079,3.632,3.632,0,0,1-.524-.327l.073-.153c.077,0,.174-.05.226-.019,1.431.862,2.92.412,4.377.151a1.259,1.259,0,0,0,.812-.64,1.525,1.525,0,0,1,.159-2.059A1.572,1.572,0,0,0,138.1,168.287Zm-3.674,3.124a1.12,1.12,0,0,1,.984-1.04,4.8,4.8,0,0,1,3.389.193c-1.473.062-2.962-.222-4.377.847Z" transform="translate(-102.691 -133.884)" fill="#598d69"/>
    <path id="Path_31" data-name="Path 31" d="M198.581,173.53c-.07.05-.141.106-.211.162C198.44,173.636,198.511,173.58,198.581,173.53Z" transform="translate(-154.751 -138.116)" fill="#598d69"/>
    <path id="Path_32" data-name="Path 32" d="M199.6,173h0c-.046.029-.095.062-.141.1A.953.953,0,0,0,199.6,173Z" transform="translate(-155.63 -137.688)" fill="#598d69"/>
    <path id="Path_33" data-name="Path 33" d="M204.289,255.682l2.113-2.28c-.9.052-1.817.168-2.728.141a2.634,2.634,0,0,1-.949-.193,2.436,2.436,0,0,1-.315.178,3.456,3.456,0,0,1-.58.209,3.89,3.89,0,0,1,1.235.752C203.471,254.845,203.849,255.249,204.289,255.682Z" transform="translate(-157.542 -202.503)" fill="#598d69"/>
    <path id="Path_34" data-name="Path 34" d="M196.321,175.46c-.048.033-.095.062-.141.089C196.226,175.522,196.273,175.493,196.321,175.46Z" transform="translate(-152.985 -139.673)" fill="#598d69"/>
    <path id="Path_35" data-name="Path 35" d="M197.781,174.37l-.141.108Z" transform="translate(-154.162 -138.793)" fill="#598d69"/>
    <path id="Path_36" data-name="Path 36" d="M126.282,327.684c.023-.079.048-.157.073-.234l-.246.193v.625C126.162,328.071,126.218,327.877,126.282,327.684Z" transform="translate(-96.462 -262.276)" fill="#598d69"/>
    <path id="Path_37" data-name="Path 37" d="M188.38,130.42a1.688,1.688,0,0,0,.174,0A1.688,1.688,0,0,1,188.38,130.42Z" transform="translate(-146.693 -103.341)" fill="#598d69"/>
    <path id="Path_38" data-name="Path 38" d="M218.707,235.474a.607.607,0,0,1-.236-.534h0A.607.607,0,0,0,218.707,235.474Z" transform="translate(-170.964 -187.653)" fill="#598d69"/>
    <path id="Path_39" data-name="Path 39" d="M129.32,182.1l.178.093Z" transform="translate(-99.052 -145.029)" fill="#598d69"/>
    <path id="Path_40" data-name="Path 40" d="M184.859,128.193a.872.872,0,0,1-.439-.433h0A.872.872,0,0,0,184.859,128.193Z" transform="translate(-143.498 -101.195)" fill="#598d69"/>
    <path id="Path_41" data-name="Path 41" d="M260.876,234.96h0c-.073-.023-.151-.041-.226-.06C260.718,234.919,260.8,234.937,260.876,234.96Z" transform="translate(-204.99 -187.62)" fill="#598d69"/>
    <path id="Path_42" data-name="Path 42" d="M39.257,2.31A32.735,32.735,0,0,0,27.985,65.775c.137.029.276.066.416.1a.878.878,0,0,1,.1.023q.342-.3.692-.58a34.7,34.7,0,0,1,.773-6.8c.447-2.067.694-4.174,1.025-6.264a2.93,2.93,0,0,0-.039-.541c-.278.236-.483.387-.663.561A3.273,3.273,0,0,1,27.446,53.3a1.682,1.682,0,0,1-1.587-1.317A2.264,2.264,0,0,1,26.9,49.946a6.2,6.2,0,0,1,4.041.387,2.254,2.254,0,0,1-.507.072c-.69-.095-1.377-.22-2.067-.311a1.693,1.693,0,0,0-2,1.046,1.209,1.209,0,0,0,1.025,1.715,2.472,2.472,0,0,0,2.365-.737c-.456.072-.9.143-1.342.209-.031,0-.07-.037-.261-.145.621-.213,1.127-.412,1.647-.559A1.709,1.709,0,0,0,31.2,50.06c.108-1.719.166-3.442.255-5.371-.292.242-.437.354-.58.474a14.859,14.859,0,0,1-4.845,3.221,2.087,2.087,0,0,1-2-.091,1.9,1.9,0,0,1-.679-2.4,4.673,4.673,0,0,1,3.6-2.865,17.282,17.282,0,0,1,2.55-.421,13.529,13.529,0,0,1,1.933.12c-.182-1.475-.371-3.008-.58-4.712-.541.621-.932,1.143-1.4,1.585A19.6,19.6,0,0,1,27.1,41.636a3.315,3.315,0,0,1-1.694.443c-1.139.037-1.651-1.16-1.092-2.392a4.964,4.964,0,0,1,3.749-2.9c.773-.16,1.572-.242,2.459-.373-.265-1.487-.534-3-.787-4.428-.727,1.087-1.392,2.243-2.22,3.271a3.428,3.428,0,0,1-3.287,1.322,1.57,1.57,0,0,1-1.444-2.146,4.118,4.118,0,0,1,2.871-2.974c.955-.305,1.951-.493,2.933-.711.723-.16.864-.342.729-1.058s-.273-1.473-.439-2.378c-.276.563-.443.978-.673,1.353A5.292,5.292,0,0,1,25.566,30.9c-1.212.472-2.148-.135-1.9-1.618.437-2.626,2.024-3.621,4.625-2.976.091.023.193.041.387.085l-.855-4.033c-.474.81-.862,1.57-1.353,2.268a2.8,2.8,0,0,1-2.707,1.38,1.211,1.211,0,0,1-1.127-1.74,4.1,4.1,0,0,1,4.194-2.985c.613.012.7-.238.557-.744-.13-.452-.238-.911-.356-1.353a19.238,19.238,0,0,1-1.974,1.309,1.67,1.67,0,0,1-2.2-.8c-.352-.7-.193-1.255.555-1.456a24.542,24.542,0,0,1,2.614-.425c-.153-.249-.338-.58-.559-.9-.354-.5-.773-.967-1.089-1.489a2.2,2.2,0,0,1,0-2.185c.346-.727.9-.8,1.448-.193.162.178.292.387.487.654.089-.275.145-.481.224-.679.131-.334.284-.611.741-.6a.986.986,0,0,1,1,.565,3.987,3.987,0,0,1-1.119,4.161,2.482,2.482,0,0,1-.826.174c.054.278.122.63.193.982l.218-.039c-.048-.228-.095-.458-.172-.831a2.67,2.67,0,0,1,.284.232c.085.1.16.213.238.321.1-.11.247-.193.305-.331a2.956,2.956,0,0,1,1.471-1.74c.9-.387,1.8-.321,2.165.193a1.625,1.625,0,0,1-.524,2.044,7.538,7.538,0,0,1-1.85,1.05.585.585,0,0,1-.907-.42c-.037-.151-.226-.263-.346-.387l-.193.07c.172.737.342,1.475.528,2.274.742-.518,1.353-1,2.017-1.4a1.989,1.989,0,0,1,3.105,1.293,1.4,1.4,0,0,1-.795,1.531,5.477,5.477,0,0,1-3.322.721l-.427-.052a1.017,1.017,0,0,0-.014.213c.193.878.387,1.756.615,2.728.122-.168.193-.269.273-.373a4.908,4.908,0,0,1,4.292-2.229,1.479,1.479,0,0,1,1.535,1.1,1.651,1.651,0,0,1-.592,1.976,10.275,10.275,0,0,1-4.433,1.562c-.528.095-.748.209-.543.773a7.747,7.747,0,0,1,.242,1.127c.073,0,.131.027.145.01a3.055,3.055,0,0,1,2.759-1.061c.86.07,1.719.145,2.573.246.621.072,1.305.16,1.527.849a1.936,1.936,0,0,1-.654,2,4.669,4.669,0,0,1-2.693,1.1,8.055,8.055,0,0,1-2.011-.027.553.553,0,0,1-.539-.706c1.512,1.069,2.933.342,4.333-.149A1.857,1.857,0,0,0,36.3,30.5c.112-.6-.081-.967-.667-1.036a35.816,35.816,0,0,0-3.867-.275c-1.029,0-1.6.636-1.783,1.779a8.856,8.856,0,0,1,4.478.11c0,.108-.017.217-.025.325-.193-.01-.4-.014-.6-.033a7.623,7.623,0,0,0-3.356-.021c-.182.064-.445.331-.425.466.217,1.373.483,2.738.773,4.265A5.7,5.7,0,0,1,34.218,34.1a3.964,3.964,0,0,1,1.4-.131,1.993,1.993,0,0,1,1.649,1.036,4.967,4.967,0,0,1,4.507-1.125c.773.159,1.547.4,2.409.623.34-1.471.688-2.968,1.015-4.379-1.094.713-2.162,1.516-3.326,2.127a3.43,3.43,0,0,1-3.534-.072,1.571,1.571,0,0,1-.483-2.542,4.124,4.124,0,0,1,3.809-1.6c1,.095,1.988.313,2.976.5.729.135.93.023,1.089-.686s.329-1.464.53-2.361c-.476.41-.791.725-1.15.98a5.3,5.3,0,0,1-3.3,1.017c-1.3-.043-1.922-.967-1.112-2.237,1.433-2.243,3.287-2.535,5.414-.918.075.058.155.112.323.232.269-1.377.524-2.674.793-4.049-.754.557-1.409,1.1-2.127,1.547a2.805,2.805,0,0,1-3.035.2,1.205,1.205,0,0,1-.354-2.036,4.1,4.1,0,0,1,5.027-1.1c.559.251.741.058.8-.466.058-.466.139-.932.209-1.392a20.058,20.058,0,0,1-2.33.427,1.666,1.666,0,0,1-1.711-1.6c-.05-.773.315-1.232,1.083-1.121a24.852,24.852,0,0,1,2.571.636c-.043-.29-.081-.675-.16-1.05-.128-.6-.331-1.191-.416-1.8a2.184,2.184,0,0,1,.868-2.007c.613-.53,1.141-.387,1.408.387.079.228.114.47.193.793.193-.218.323-.387.472-.536.253-.257.5-.45.918-.261a.981.981,0,0,1,.692.913,3.987,3.987,0,0,1-2.664,3.384,2.445,2.445,0,0,1-.828-.164c-.06.278-.137.628-.213.978l.217.05.168-.831a2.641,2.641,0,0,1,.172.325c.039.128.064.259.093.387a1.441,1.441,0,0,0,.41-.193,2.906,2.906,0,0,1,2.036-1.015c.978,0,1.781.412,1.912,1.034a1.617,1.617,0,0,1-1.288,1.672,7.526,7.526,0,0,1-2.111.24c-.41,0-.76-.193-.669-.744.023-.153-.106-.331-.164-.5l-.207-.012c-.131.746-.265,1.493-.408,2.3.887-.193,1.638-.387,2.4-.489a1.987,1.987,0,0,1,2.345,2.407,1.413,1.413,0,0,1-1.332,1.1,5.468,5.468,0,0,1-3.337-.642l-.373-.217a.9.9,0,0,0-.095.193c-.166.884-.327,1.769-.507,2.749.178-.106.288-.168.387-.236a4.881,4.881,0,0,1,4.822-.363,1.494,1.494,0,0,1,.978,1.62,1.649,1.649,0,0,1-1.321,1.583,10.379,10.379,0,0,1-4.691-.305c-.524-.122-.773-.1-.8.5A7.747,7.747,0,0,1,46.051,28c.066.035.112.077.131.066a3.053,3.053,0,0,1,2.954.11c.762.4,1.522.808,2.27,1.237.539.309,1.135.659,1.069,1.379a1.931,1.931,0,0,1-1.39,1.587,4.605,4.605,0,0,1-2.9-.044,8,8,0,0,1-1.841-.814.553.553,0,0,1-.218-.86c.967,1.578,2.562,1.467,4.043,1.566a1.863,1.863,0,0,0,1.667-.907c.336-.5.307-.926-.2-1.214a35.215,35.215,0,0,0-3.44-1.769,1.764,1.764,0,0,0-2.339.932,8.842,8.842,0,0,1,4.076,1.864c-.05.1-.1.193-.153.288-.18-.087-.363-.168-.537-.265a7.606,7.606,0,0,0-3.078-1.34c-.193-.012-.539.13-.58.261-.342,1.353-.632,2.707-.967,4.223a5.692,5.692,0,0,1,3.888-.481,3.983,3.983,0,0,1,1.342.429,1.946,1.946,0,0,1,.913,2.626,2.149,2.149,0,0,1-2.716,1.493,6.732,6.732,0,0,1-3.432-1.547,3.944,3.944,0,0,1-.354-.507l.128-.112c.073.021.18.021.215.07.976,1.353,2.523,1.529,3.967,1.862.739.17,1.653-.652,1.891-1.547a1.631,1.631,0,0,0-.988-2.022,5.385,5.385,0,0,0-4.373.058,1.39,1.39,0,0,0-.613.773c-.563,1.8-.967,3.66-1.632,5.414-.773,2.032-1.756,3.981-2.645,5.967-.081.178-.155.36-.244.568l1.566-.145a4.64,4.64,0,0,1,3.2.826,2.84,2.84,0,0,1,2.707.387c.566.4,1.085.87,1.614,1.321.387.333.549.334.887-.039s.7-.764,1.127-1.234c-.425.081-.723.164-1.027.193a3.662,3.662,0,0,1-2.32-.52c-.773-.474-.82-1.243.1-1.725,1.63-.855,2.84-.387,3.567,1.309.025.06.056.12.116.249L53.358,45.8c-.644.075-1.226.18-1.81.2a1.988,1.988,0,0,1-1.674-.624,2.773,2.773,0,0,1-1.8.479,7.734,7.734,0,0,1-4.764-1.587,4.351,4.351,0,0,1-.315-.311l.093-.13c.224.135.454.259.671.406A8.489,8.489,0,0,0,48,45.571a2.047,2.047,0,0,0,1.659-.483.835.835,0,0,1,.487-1.342l.16-.043a2.9,2.9,0,0,0-1.6-3.093,6.028,6.028,0,0,0-4.845.017,4.3,4.3,0,0,0-.773.536c-.1-.7.356-.922.787-1.058a6.835,6.835,0,0,1,4.764-.014,3.2,3.2,0,0,1,2.127,2.9,4.273,4.273,0,0,1,0,.611,2.735,2.735,0,0,1,2.786,1.2c.249.342.423.288.642,0,.193-.259.4-.51.6-.764a13.848,13.848,0,0,1-1.547-.543,1.16,1.16,0,0,1-.479-1.547c.238-.485.613-.63,1.034-.3a17.247,17.247,0,0,1,1.324,1.264c.073-.193.184-.431.265-.684.13-.4.211-.828.367-1.22a1.509,1.509,0,0,1,1.208-.907c.549-.108.816.16.712.717-.031.164-.093.321-.159.541.193-.066.327-.122.468-.16.24-.066.454-.1.64.159a.678.678,0,0,1,.1.785,2.748,2.748,0,0,1-2.759,1.116c-.16-.056-.278-.236-.441-.387l-.449.559.112.1.387-.441a1.574,1.574,0,0,1-.01.253c-.019.089-.05.176-.077.265a1.015,1.015,0,0,0,.309.031,2.017,2.017,0,0,1,1.57.089c.58.338.928.857.791,1.276a1.124,1.124,0,0,1-1.353.563,5.249,5.249,0,0,1-1.353-.58.4.4,0,0,1-.145-.675c.066-.083.05-.234.072-.356l-.12-.077-1.032,1.239c.6.193,1.114.331,1.609.53a1.373,1.373,0,0,1,.58,2.251.978.978,0,0,1-1.176.193,3.778,3.778,0,0,1-1.781-1.531c-.05-.081-.1-.164-.151-.257a.518.518,0,0,0-.122.083c-.4.474-.8.949-1.249,1.475h.319A3.391,3.391,0,0,1,55.275,49.3a1.029,1.029,0,0,1,.031,1.307,1.141,1.141,0,0,1-1.334.5,7.165,7.165,0,0,1-2.707-1.794c-.273-.251-.427-.325-.654.023a5.517,5.517,0,0,1-.52.6c.027.043.039.083.054.085a2.129,2.129,0,0,1,1.74,1.079c.319.5.636,1.007.938,1.52.217.373.454.787.168,1.2a1.341,1.341,0,0,1-1.379.476,3.232,3.232,0,0,1-1.73-1.025,5.517,5.517,0,0,1-.824-1.121.387.387,0,0,1,.164-.59c.041,1.278,1.032,1.759,1.887,2.32a1.288,1.288,0,0,0,1.311.027c.375-.193.5-.449.294-.8a24.2,24.2,0,0,0-1.458-2.243,1.219,1.219,0,0,0-1.723-.242,6.14,6.14,0,0,1,1.806,2.513l-.193.122c-.077-.114-.16-.226-.232-.344a5.27,5.27,0,0,0-1.388-1.86c-.11-.073-.367-.106-.433-.039-.667.69-1.307,1.408-2.032,2.2a3.943,3.943,0,0,1,2.5,1.044,2.8,2.8,0,0,1,.657.719,1.341,1.341,0,0,1-.352,1.889,1.486,1.486,0,0,1-2.142-.037A4.641,4.641,0,0,1,46.2,54.724a2.557,2.557,0,0,1-.039-.425l.116-.023c.037.039.1.073.1.116.12,1.148.99,1.783,1.74,2.477a1.341,1.341,0,0,0,1.667-.282,1.127,1.127,0,0,0,.1-1.547,3.7,3.7,0,0,0-2.643-1.464.955.955,0,0,0-.632.249c-.955.887-1.835,1.864-2.838,2.691-1.16.955-2.419,1.786-3.633,2.674-.11.079-.218.162-.342.257l.99.45A3.223,3.223,0,0,1,42.6,61.968c.261.847-.23,1.421-1.129,1.353a3.151,3.151,0,0,1-2.069-1.237,3.324,3.324,0,0,1-.58-.93c-.147-.344.048-.57.441-.539-.551.655.064,1.009.387,1.4a4.06,4.06,0,0,0,.953.773,1.362,1.362,0,0,0,1.665-.033c.217-.253.05-1.06-.307-1.5a3.732,3.732,0,0,0-1.7-1.288,2.955,2.955,0,0,0-.454-.091c-.137-.023-.275-.037-.414-.054v-.112c-1.127.625-2.249,1.263-3.385,1.868-.876.466-1.785.874-2.66,1.34A23.51,23.51,0,0,0,30.52,64.7c-.1.288-.193.58-.28.868s-.174.568-.255.855c.083.029.168.058.257.085h0a32.731,32.731,0,1,0,9.008-64.19Zm6.935,33.131a4.825,4.825,0,0,1,3.041,1.512c-1.377-.522-2.631-1.369-4.354-.942A1.118,1.118,0,0,1,46.192,35.441Zm-2.707,6.351c1.278.594,2.55,1.2,3.813,1.823.149.073.22.3.329.456l-.178.157L42.9,42c.025-.083.05-.166.077-.249a1.556,1.556,0,0,1,.51.044Zm4.138,12.629a3.306,3.306,0,0,1,1.305,1.949c-.646-.785-1.108-1.723-2.287-2.057a.773.773,0,0,1,.984.108ZM41.794,62.09a2.554,2.554,0,0,1-1.38-.737C40.723,61.177,41.374,61.514,41.794,62.09Zm1.74-4.986a1.071,1.071,0,0,1,.292.193c.563.795,1.119,1.593,1.663,2.4.064.095.029.257.039.387l-.159.033-1.964-2.9Zm4.238,3.442a1.655,1.655,0,0,1-2.591.8,5.382,5.382,0,0,1-2.32-2.587,3,3,0,0,1-.083-.294l.1-.046c.089.159.184.311.263.474a5.819,5.819,0,0,0,2.088,2.251,1.345,1.345,0,0,0,1.966-.257,2,2,0,0,0,.159-2.477,4.145,4.145,0,0,0-2.914-1.651,2.825,2.825,0,0,0-.646.056c.18-.454.53-.431.835-.365a4.761,4.761,0,0,1,2.863,1.626,2.2,2.2,0,0,1,.276,2.473Z" transform="translate(0)" fill="#598d69"/>
    <path id="Path_43" data-name="Path 43" d="M101.209,148.674a.833.833,0,0,1-.249-.014A.833.833,0,0,0,101.209,148.674Z" transform="translate(-76.175 -118.054)" fill="#598d69"/>
    <path id="Path_44" data-name="Path 44" d="M98.85,147.59h0a.9.9,0,0,0,.408.207A.9.9,0,0,1,98.85,147.59Z" transform="translate(-74.473 -117.191)" fill="#598d69"/>
    <path id="Path_45" data-name="Path 45" d="M129.32,185.515c.031-.05.06-.1.089-.155C129.38,185.412,129.351,185.464,129.32,185.515Z" transform="translate(-99.052 -147.658)" fill="#598d69"/>
    <path id="Path_46" data-name="Path 46" d="M130.4,183a3.371,3.371,0,0,0-.18.3A3.371,3.371,0,0,1,130.4,183Z" transform="translate(-99.778 -145.755)" fill="#598d69"/>
    <path id="Path_47" data-name="Path 47" d="M129.78,184.707l.085-.157Z" transform="translate(-99.423 -147.005)" fill="#598d69"/>
    <path id="Path_48" data-name="Path 48" d="M112.758,183s-4.408,1.609-4.408,2.529" transform="translate(-82.136 -145.755)" fill="#598d69"/>
    <path id="Path_49" data-name="Path 49" d="M115.7,216.939c-.735.124-1.547-.193-2.206.155a2.32,2.32,0,0,0-.443.333l-1.757,1.547" transform="translate(-84.508 -173.12)" fill="#598d69"/>
    <path id="Path_50" data-name="Path 50" d="M161.75,203.946a14.127,14.127,0,0,1,5.532.369" transform="translate(-125.211 -162.554)" fill="#598d69"/>
    <path id="Path_51" data-name="Path 51" d="M110.286,153a2.732,2.732,0,0,0-1.815.744,8.181,8.181,0,0,0-1.27,1.547" transform="translate(-81.208 -121.555)" fill="#598d69"/>
    <path id="Path_52" data-name="Path 52" d="M106.45,133.824a5.533,5.533,0,0,1,2.945-1.224" transform="translate(-80.603 -105.099)" fill="#598d69"/>
    <path id="Path_53" data-name="Path 53" d="M126.82,124.416a2.96,2.96,0,0,1,2.142-1.056" transform="translate(-97.035 -97.646)" fill="#598d69"/>
    <path id="Path_54" data-name="Path 54" d="M102.174,102.51a2.448,2.448,0,0,0-2.834,1.05" transform="translate(-74.868 -80.732)" fill="#598d69"/>
    <path id="Path_55" data-name="Path 55" d="M102.033,85.76l-1.723.551" transform="translate(-75.65 -67.315)" fill="#598d69"/>
    <path id="Path_56" data-name="Path 56" d="M114.54,80.4a2.581,2.581,0,0,0,2.164-.787" transform="translate(-87.129 -62.355)" fill="#598d69"/>
    <path id="Path_57" data-name="Path 57" d="M105.43,68l.371.46" transform="translate(-79.781 -52.989)" fill="#598d69"/>
    <path id="Path_58" data-name="Path 58" d="M111,64.051a6.042,6.042,0,0,1,.773-1.831" transform="translate(-84.274 -48.327)" fill="#598d69"/>
    <path id="Path_59" data-name="Path 59" d="M223.625,54.59a3.562,3.562,0,0,0,.193,1.38" transform="translate(-175.119 -42.172)" fill="#598d69"/>
    <path id="Path_60" data-name="Path 60" d="M224.61,60.682a1.974,1.974,0,0,0,1.473-.362" transform="translate(-175.918 -46.794)" fill="#598d69"/>
    <path id="Path_61" data-name="Path 61" d="M209.37,74.957a5.362,5.362,0,0,1,2.127.139" transform="translate(-163.624 -58.562)" fill="#598d69"/>
    <path id="Path_62" data-name="Path 62" d="M223.66,73.647a3.453,3.453,0,0,0,2.3-.437" transform="translate(-175.152 -57.192)" fill="#598d69"/>
    <path id="Path_63" data-name="Path 63" d="M204.12,94.13h2.117" transform="translate(-159.389 -74.067)" fill="#598d69"/>
    <path id="Path_64" data-name="Path 64" d="M224.12,94.516a2.8,2.8,0,0,1,2.367.785" transform="translate(-175.523 -74.321)" fill="#598d69"/>
    <path id="Path_65" data-name="Path 65" d="M196.18,120.641a2.334,2.334,0,0,0-1.628.139,3.988,3.988,0,0,1-1.4.64" transform="translate(-150.54 -95.383)" fill="#598d69"/>
    <path id="Path_66" data-name="Path 66" d="M217.45,117.741a11.911,11.911,0,0,1,2.051-.012,2.489,2.489,0,0,0,1.881-.659" transform="translate(-170.142 -92.572)" fill="#598d69"/>
    <path id="Path_67" data-name="Path 67" d="M189.041,142c-.665.085-1.344,0-2.011.056a2.244,2.244,0,0,0-1.74.855" transform="translate(-144.2 -112.682)" fill="#598d69"/>
    <path id="Path_68" data-name="Path 68" d="M179.34,176.113a24.978,24.978,0,0,1,3.316-.087" transform="translate(-139.401 -140.113)" fill="#598d69"/>
    <path id="Path_69" data-name="Path 69" d="M225.93,235.451a2.4,2.4,0,0,1,2.3.478" transform="translate(-176.983 -187.974)" fill="#598d69"/>
    <path id="Path_70" data-name="Path 70" d="M239.93,223.794a7.767,7.767,0,0,0-1.81.058" transform="translate(-186.816 -178.639)" fill="#598d69"/>
    <path id="Path_71" data-name="Path 71" d="M251.63,227.07l1.16,1.038" transform="translate(-197.714 -181.304)" fill="#598d69"/>
    <path id="Path_72" data-name="Path 72" d="M250.837,214.647a1.9,1.9,0,0,1-.847-.217" transform="translate(-196.391 -171.108)" fill="#598d69"/>
    <path id="Path_73" data-name="Path 73" d="M261.71,218.47a.8.8,0,0,0,.862.468" transform="translate(-205.845 -174.367)" fill="#598d69"/>
    <path id="Path_74" data-name="Path 74" d="M261.691,207.117a.911.911,0,0,1,.375-.947" transform="translate(-205.812 -164.445)" fill="#598d69"/>
  </g>
</svg>
