<svg xmlns="http://www.w3.org/2000/svg" viewBox="0 0 280 42.4">
  <defs>
    <style>
      .cls-1 {
        fill: #c40c0c;
      }

      .cls-2 {
        fill: #0b40b5;
      }
    </style>
  </defs>
  <g id="IDPA-logo" transform="translate(-16.9 -20.5)">
    <g id="Group_14233" data-name="Group 14233" transform="translate(202.447 21.56)">
      <g id="Group_14230" data-name="Group 14230" transform="translate(6.694 13.462)">
        <path id="Path_7902" data-name="Path 7902" class="cls-1" d="M241.591,36.82l.628-2.12H200.8l12.969,2.12Z" transform="translate(-200.695 -34.17)"/>
        <path id="Path_7903" data-name="Path 7903" class="cls-1" d="M242.014,37.38h-28.24L200.7,35.26l.1-1.06h42.151Zm-34.829-2.12,6.694,1.166h27.3l.314-1.166Z" transform="translate(-200.7 -34.2)"/>
      </g>
      <g id="Group_14231" data-name="Group 14231" transform="translate(11.819 22.79)">
        <path id="Path_7904" data-name="Path 7904" class="cls-1" d="M241.161,45.726l.732-2.226H205.6l11.61,2.226Z" transform="translate(-205.6 -42.97)"/>
        <path id="Path_7905" data-name="Path 7905" class="cls-1" d="M217.21,46.286,205.6,44.06l.1-1.06H242.73l-1.255,3.18Zm-5.962-2.226,6.066,1.166,23.429-.106.418-1.06Z" transform="translate(-205.6 -43)"/>
      </g>
      <g id="Group_14232" data-name="Group 14232">
        <path id="Path_7906" data-name="Path 7906" class="cls-1" d="M260.193,45.744a8.271,8.271,0,0,0,3.661-1.378,7.918,7.918,0,0,0,3.138-3.5l.1-.212a4.031,4.031,0,0,1,1.36-1.908,4.181,4.181,0,0,1,2.092-.848h10.668l5.962-12.614A2.329,2.329,0,0,0,285.3,22H281.53l-1.046,2.226L194.3,24.12l19.873,3.074H283.1l-3.452,7.738h-9.832a5.77,5.77,0,0,0-3.138,1.272,4.919,4.919,0,0,0-1.883,2.332L263.75,40.55a5.85,5.85,0,0,1-4.6,2.226h-5.962a6.5,6.5,0,0,0-3.138,1.06,7.179,7.179,0,0,0-2.615,2.332l-7.844,10.6a3.429,3.429,0,0,1-1.987,1.378,5.187,5.187,0,0,1-1.255.212H225.678l-.941.212-8.681,2.438h21.023a4.286,4.286,0,0,0,1.674-.318,5.014,5.014,0,0,0,2.51-1.8l.418-.53,7.635-10.07c.1-.106.209-.318.418-.53l.1-.106h0l.1-.106a3.541,3.541,0,0,1,1.464-.954,4.719,4.719,0,0,1,2.3-.636h5.857l.1.848v-.848Z" transform="translate(-194.3 -21.47)"/>
        <path id="Path_7907" data-name="Path 7907" class="cls-1" d="M216.16,61.568l-.1-1.06,9.727-2.65h10.668a3.673,3.673,0,0,0,1.046-.212,3.52,3.52,0,0,0,1.778-1.166l7.844-10.6a9.174,9.174,0,0,1,2.719-2.544,7.61,7.61,0,0,1,3.452-1.06h6.066a6.487,6.487,0,0,0,1.987-.318,4.959,4.959,0,0,0,2.2-1.59l.941-2.014a6.621,6.621,0,0,1,2.092-2.544,5.54,5.54,0,0,1,3.452-1.378h9.413l2.929-6.678h-68.09L194.3,24.68l.1-1.06,85.766.106,1.046-2.226H285.3a2.7,2.7,0,0,1,2.615,2.756,2.853,2.853,0,0,1-.314,1.272L281.53,38.46H270.548a3.052,3.052,0,0,0-1.778.742,3.768,3.768,0,0,0-1.151,1.7l-.1.212a7.436,7.436,0,0,1-3.347,3.816,8.377,8.377,0,0,1-3.87,1.484v.318l-1.046.106-.1-.318h-5.439a5.525,5.525,0,0,0-2.092.53,2.859,2.859,0,0,0-1.255.954l-.209.212c-.1.106-.314.318-.314.424l-8.054,10.706a5.463,5.463,0,0,1-2.719,2.014,5.852,5.852,0,0,1-1.883.318Zm9.622-2.65-.837.212-4.916,1.378h17.258a3.3,3.3,0,0,0,1.464-.318,4.432,4.432,0,0,0,2.2-1.59l.418-.53L249,48a4.222,4.222,0,0,1,.314-.424h0l.418-.424a5.857,5.857,0,0,1,1.569-1.06,8.323,8.323,0,0,1,2.51-.742h6.38a7.737,7.737,0,0,0,3.347-1.272,6.469,6.469,0,0,0,2.824-3.18l.1-.212a3.736,3.736,0,0,1,1.464-2.12,4.136,4.136,0,0,1,2.2-.954h10.459l5.753-12.3a2.522,2.522,0,0,0,.209-.848,1.645,1.645,0,0,0-1.569-1.7H281.53L280.484,25h-.314l-79.177-.106,12.97,2.014h69.659l-3.87,8.8H269.711a5.235,5.235,0,0,0-2.824,1.166,5.507,5.507,0,0,0-1.778,2.12l-1.046,2.12a6.158,6.158,0,0,1-2.719,2.12,6.064,6.064,0,0,1-2.406.424h-5.962a7.228,7.228,0,0,0-2.929.954,7.085,7.085,0,0,0-2.406,2.226l-7.844,10.6a4.552,4.552,0,0,1-2.3,1.59,6.046,6.046,0,0,1-1.36.212Z" transform="translate(-194.3 -21.5)"/>
      </g>
    </g>
    <g id="Group_14238" data-name="Group 14238" transform="translate(17.946 22.726)">
      <g id="Group_14234" data-name="Group 14234" transform="translate(0 0.106)">
        <rect id="Rectangle_13945" data-name="Rectangle 13945" class="cls-2" width="8.263" height="37.312" transform="translate(0.523 0.53)"/>
        <path id="Path_7908" data-name="Path 7908" class="cls-2" d="M27.209,60.966H17.9V22.7h9.309Zm-8.263-1.06h7.217V23.76H18.946Z" transform="translate(-17.9 -22.7)"/>
      </g>
      <g id="Group_14235" data-name="Group 14235" transform="translate(15.48 0.106)">
        <path id="Path_7909" data-name="Path 7909" class="cls-2" d="M90.517,25.956a13.19,13.19,0,0,0-8.367-2.65L33.2,23.2v8.692H76.188a10.7,10.7,0,0,1,6.276,1.7A7.156,7.156,0,0,1,85.6,37.616v7.632c0,1.8-.941,3.286-2.929,4.558a11.116,11.116,0,0,1-6.171,1.8H41.567V37.828H33.3V60.512H82.254a13.19,13.19,0,0,0,8.367-2.65,7.753,7.753,0,0,0,3.347-6.254V32.1A7.686,7.686,0,0,0,90.517,25.956Z" transform="translate(-32.677 -22.67)"/>
        <path id="Path_7910" data-name="Path 7910" class="cls-2" d="M82.277,60.966H32.7V37.222h9.309V51H76.524a10.256,10.256,0,0,0,5.857-1.7C84.16,48.14,85,46.762,85,45.278V37.646a6.083,6.083,0,0,0-2.824-3.6,10.427,10.427,0,0,0-5.962-1.59H32.7V22.7l49.472.106a14.175,14.175,0,0,1,8.681,2.756h0c2.406,1.908,3.556,4.028,3.556,6.678v19.4c0,2.65-1.151,4.77-3.556,6.678A13.59,13.59,0,0,1,82.277,60.966Zm-48.531-1.06H82.172a12.852,12.852,0,0,0,8.054-2.544,7.063,7.063,0,0,0,3.138-5.83v-19.4a7.351,7.351,0,0,0-3.138-5.83h0a12.852,12.852,0,0,0-8.054-2.544l-48.426-.106v7.632H76.211a11.19,11.19,0,0,1,6.485,1.8,7.4,7.4,0,0,1,3.347,4.346v7.738c0,1.908-1.046,3.6-3.138,4.982a11.2,11.2,0,0,1-6.38,1.8H40.963V38.176H33.746v21.73Z" transform="translate(-32.7 -22.7)"/>
      </g>
      <g id="Group_14236" data-name="Group 14236" transform="translate(82.837)">
        <path id="Path_7911" data-name="Path 7911" class="cls-2" d="M158.164,37.092V32.64c0-3.18-1.046-5.512-3.242-7.1a13.393,13.393,0,0,0-8.472-2.332L97.5,23.1v8.692h51.878v6.042H97.6V60.412h8.263V45.466h40.582c3.975,0,7.008-.636,8.995-1.908C157.327,42.286,158.164,40.166,158.164,37.092Z" transform="translate(-97.082 -22.57)"/>
        <path id="Path_7912" data-name="Path 7912" class="cls-2" d="M106.409,60.972H97.1V37.334h51.878V32.352H97.1V22.6l49.472.106a14.268,14.268,0,0,1,8.681,2.438c2.3,1.7,3.452,4.134,3.452,7.526v4.452c0,3.286-.941,5.618-3.033,6.89-1.987,1.378-5.125,2.014-9.2,2.014H106.409Zm-8.263-1.06h7.217V44.966h41.1c3.87,0,6.8-.636,8.681-1.908,1.674-1.166,2.51-3.074,2.51-6.042V32.564c0-2.968-.941-5.194-3.033-6.678a12.8,12.8,0,0,0-8.158-2.226l-48.426-.106v7.632h51.878v7.1H98.146Z" transform="translate(-97.1 -22.6)"/>
      </g>
      <g id="Group_14237" data-name="Group 14237" transform="translate(134.402 0.954)">
        <path id="Path_7913" data-name="Path 7913" class="cls-2" d="M172.5,23.9l-6.066,8.692h10.982l4.6,6.36H162.461L147.4,61.212h8.054l11.505-14.946h20.5L198.65,61.212H206.7L181.6,23.9Z" transform="translate(-146.354 -23.476)"/>
        <path id="Path_7914" data-name="Path 7914" class="cls-2" d="M207.691,61.766h-9.309L187.191,46.82H167.214L155.709,61.766H146.4l15.689-23.214h18.827l-3.87-5.3H165.331l6.8-9.752h9.727l.1.212Zm-8.681-1.06h6.8L181.543,24.454h-8.681l-5.23,7.632h10.25l5.439,7.42h-20.6L148.387,60.6h6.8l11.505-14.946h21.128Z" transform="translate(-146.4 -23.5)"/>
      </g>
    </g>
    <g id="Group_14239" data-name="Group 14239" transform="translate(16.9 20.5)">
      <path id="Path_7915" data-name="Path 7915" d="M16.9,62.086H28.3V21.7H16.9Zm1.569-38.8h8.263V60.6H18.469Z" transform="translate(-16.9 -20.428)"/>
      <path id="Path_7916" data-name="Path 7916" d="M91.632,24.774a14.435,14.435,0,0,0-9.309-2.968L44.983,21.7H31.7V33.572H76.256a9.091,9.091,0,0,1,5.334,1.378A5.275,5.275,0,0,1,84,37.918v7.42q0,1.749-2.2,3.18A10,10,0,0,1,76.57,50H43.1V36.222H31.7V62.086H82.218a15.067,15.067,0,0,0,9.309-2.968A9.264,9.264,0,0,0,95.5,51.592v-19.4A9.108,9.108,0,0,0,91.632,24.774Zm2.3,26.924a7.619,7.619,0,0,1-3.347,6.254,12.99,12.99,0,0,1-8.367,2.65H33.269V37.812h8.263v13.78H76.57a11.372,11.372,0,0,0,6.171-1.8c1.883-1.272,2.929-2.756,2.929-4.558V37.494a6.293,6.293,0,0,0-3.138-3.816,11.537,11.537,0,0,0-6.276-1.7H33.269V23.29l48.949.106a13.19,13.19,0,0,1,8.367,2.65A7.753,7.753,0,0,1,93.933,32.3Z" transform="translate(-16.22 -20.428)"/>
      <path id="Path_7917" data-name="Path 7917" d="M159.8,37.182V32.73a9.9,9.9,0,0,0-3.87-8.374,15.6,15.6,0,0,0-9.309-2.65l-37.34-.106H96.1V33.472h51.878v2.862H96.1V62.092h11.4V47.146h39.013c4.288,0,7.635-.742,9.832-2.226C158.646,43.436,159.8,40.786,159.8,37.182Zm-13.283,8.374H105.932V60.5H97.669V37.924h51.878V31.882H97.669V23.19l48.949.106a14.521,14.521,0,0,1,8.472,2.332c2.2,1.59,3.242,3.922,3.242,7.1v4.452c0,3.074-.941,5.194-2.824,6.466C153.521,44.92,150.488,45.556,146.514,45.556Z" transform="translate(-13.263 -20.434)"/>
      <path id="Path_7918" data-name="Path 7918" d="M171.794,22.406l-8.263,11.872H176.71l2.3,3.18H161.753L144.6,62.792h11.714L167.82,47.846h19.036l11.191,14.946h11.714L182.567,22.3H171.794Zm26.985,38.9L187.588,46.362h-20.5L155.582,61.308h-8.054l14.957-22.154h19.559l-4.6-6.36H166.46l6.066-8.692h9.2l25,37.312h-7.949Z" transform="translate(-11.035 -20.392)"/>
      <path id="Path_7919" data-name="Path 7919" d="M191.5,34.8l22.487,3.71h29.181l1.569-5.406H191.709Zm51.146,0-.628,2.226H214.2L201.227,34.9Z" transform="translate(-8.881 -19.744)"/>
      <path id="Path_7920" data-name="Path 7920" d="M197.5,43.59l19.873,3.816h.1l25.1-.106,1.987-5.3H197.6Zm44.766,0-.837,2.12-23.952.106-11.61-2.226Z" transform="translate(-8.606 -19.21)"/>
      <path id="Path_7921" data-name="Path 7921" d="M286.073,20.5h-5.23L279.8,22.726,184.3,22.62l-.1,1.59,30.227,4.664h66.626l-1.987,4.558h-8.995A8.092,8.092,0,0,0,263.8,37.99l-.732,1.59v.106a3.519,3.519,0,0,1-1.778,1.378,4.149,4.149,0,0,1-1.569.318H253.65a7.6,7.6,0,0,0-3.974,1.272,8.364,8.364,0,0,0-3.138,2.862L238.9,55.8l-.1.106a1.821,1.821,0,0,1-1.255.848,2.014,2.014,0,0,1-.837.106H226.037L210.662,61.2l.209,1.59h26.776a4.629,4.629,0,0,0,2.092-.424,6.5,6.5,0,0,0,3.242-2.438l8.054-10.706.314-.318.1-.106a4.648,4.648,0,0,1,1.151-.848,2.924,2.924,0,0,1,1.778-.424h6.485a9.3,9.3,0,0,0,4.288-1.59,8.992,8.992,0,0,0,3.765-4.346v-.106a2.976,2.976,0,0,1,.837-1.272,2.669,2.669,0,0,1,1.464-.53h11.3l5.23-11.13.732-1.484.418-.954v-.106a4.3,4.3,0,0,0,.314-1.59A3.653,3.653,0,0,0,286.073,20.5ZM260.134,45.834h-5.857a4.72,4.72,0,0,0-2.3.636c-.523.318-1.046.636-1.464.954l-.1.106h0l-.1.106c-.209.212-.314.424-.418.53l-7.635,10.07-.418.53a4.462,4.462,0,0,1-2.51,1.8,4.682,4.682,0,0,1-1.673.318H216.624l8.681-2.438.941-.212h10.668a5.186,5.186,0,0,0,1.255-.212,3.428,3.428,0,0,0,1.987-1.378L248,46.046a7.179,7.179,0,0,1,2.615-2.332,7.861,7.861,0,0,1,3.138-1.06h5.962a5.85,5.85,0,0,0,4.6-2.226l1.046-2.014a7.385,7.385,0,0,1,1.883-2.332,5.5,5.5,0,0,1,3.138-1.272h9.832l3.452-7.738H214.741L194.868,24l86.08.106,1.046-2.226h3.765a2.207,2.207,0,0,1,2.092,2.226,4.722,4.722,0,0,1-.209,1.06L281.576,37.99H270.907a4.181,4.181,0,0,0-2.092.848,4.03,4.03,0,0,0-1.36,1.908l-.1.212a6.511,6.511,0,0,1-3.138,3.5,9.2,9.2,0,0,1-3.661,1.378h-.418v0Z" transform="translate(-9.216 -20.5)"/>
    </g>
  </g>
</svg>
