<?xml version="1.0" encoding="utf-8"?>
<!-- Generator: Adobe Illustrator 21.0.2, SVG Export Plug-In . SVG Version: 6.00 Build 0)  -->
<svg version="1.0" id="Layer_1" xmlns="http://www.w3.org/2000/svg" xmlns:xlink="http://www.w3.org/1999/xlink" x="0px" y="0px"
	 width="338px" height="126px" viewBox="0 0 338 126" style="enable-background:new 0 0 338 126;" xml:space="preserve">
<style type="text/css">
	.st0{fill:#0071CE;}
	.st1{fill:#6C6C6F;}
</style>
<g>
	<path class="st0" d="M24.1,26.2c2.4,0,4.4-0.7,6.1-2.2c1.6-1.5,2.5-3.4,2.5-5.6c0-2.3-0.8-4.1-2.5-5.6c-1.6-1.5-3.7-2.2-6.1-2.2
		c-2.4,0-4.4,0.8-5.9,2.3c-1.6,1.6-2.3,3.4-2.3,5.5c0,2.1,0.8,3.9,2.3,5.5C19.7,25.4,21.7,26.2,24.1,26.2"/>
	<path class="st0" d="M143.3,53.3c-2-6.5-5.9-11.5-11.8-14.7c-5.3-2.9-11-3.5-16.9-2.7c-4.1,0.6-7.9,2.1-11.4,4.3
		c-1.7,1-3.3,2.2-4.9,3.4v-33H86V55l-6.9,7.8c-3.7,4-7.4,7.9-11.8,11.1c-2.8,2.1-5.9,3.7-9.3,4.5c-5,1.1-9.6,0.3-13.6-3.1
		c-2.8-2.4-4.3-5.4-5-9c-0.8-4.4-0.2-8.6,2.3-12.3c2.6-4,6.2-6.4,10.8-7.1c4-0.6,7.7,0.4,11.3,2.3c1.8,1,3.4,2.2,5,3.5l6.1-8.6
		c-1.6-1.3-3.2-2.5-4.9-3.6c-6-3.9-12.5-5.6-19.6-4.3c-5.5,1-10.2,3.3-14.2,7.3C34,45.7,32.3,48,31,50.6V36.4H17.6V92
		c0,1.2,0,2.5-0.1,3.8s-0.3,2.5-0.7,3.6c-0.4,1.1-1.1,2-2,2.7s-2.2,1-3.8,1c-0.7,0-1.4-0.1-2.1-0.2c-0.7-0.1-1.3-0.2-2.1-0.4
		l-1,11.3c1.2,0.4,2.3,0.6,3.5,0.8c1.2,0.1,2.4,0.2,3.6,0.2c3.7,0,6.7-0.6,9-1.7c2.3-1.2,4.1-2.8,5.4-4.9c1.3-2.1,2.1-4.5,2.6-7.3
		c0.4-2.8,0.7-5.8,0.7-9.1V76c1.9,4,4.8,7.4,8.7,9.9c3.3,2.1,6.9,3.3,10.7,3.8c3.2,0.4,6.3,0.2,9.4-0.5c4.2-0.9,8.1-2.8,11.6-5.2
		c3.9-2.6,7.3-5.8,10.6-9.1c1.4-1.4,2.8-2.9,4.2-4.4v18.1h12.4V82c1.5,1.2,3,2.3,4.6,3.3c6,3.8,12.4,5.5,19.4,4.2
		c5.4-1,10.2-3.3,14.2-7.3c5-4.9,7.7-11,8.1-18.1C144.9,60.3,144.4,56.7,143.3,53.3z M131.3,70.8c-2.5,4.3-6.1,6.9-10.9,7.7
		c-4.1,0.7-7.8-0.3-11.4-2.2c-2.8-1.5-5.2-3.5-7.5-5.6c-1.1-1-2.1-2-3.1-3V57.4c0.6-0.6,1.3-1.2,1.9-1.8c2.3-2.1,4.7-4.1,7.3-5.7
		c2.5-1.5,5.1-2.7,8-3.1c5.3-0.8,10,0.5,13.8,4.6c2.1,2.2,3.3,4.9,3.8,8C133.9,63.4,133.4,67.2,131.3,70.8z"/>
</g>
<g>
	<path class="st1" d="M159.1,39.7h2.7v21.2h-2.7V39.7z"/>
	<path class="st1" d="M168.5,39.7h3.6l11.1,17.4h0.1V39.7h2.7v21.2h-3.5l-11.2-17.4h-0.1v17.4h-2.7L168.5,39.7L168.5,39.7z"/>
	<path class="st1" d="M193.1,56.5c0.5,0.8,1.1,1.4,1.9,1.7c0.8,0.4,1.6,0.6,2.4,0.6c0.5,0,0.9-0.1,1.4-0.2c0.5-0.1,0.9-0.4,1.3-0.7
		c0.4-0.3,0.7-0.7,1-1.1c0.2-0.4,0.4-0.9,0.4-1.5c0-0.8-0.2-1.4-0.7-1.9c-0.5-0.4-1.1-0.8-1.8-1.1s-1.5-0.6-2.4-0.8
		c-0.9-0.3-1.7-0.6-2.4-1.1s-1.3-1.1-1.8-1.9c-0.5-0.8-0.7-1.9-0.7-3.3c0-0.6,0.1-1.3,0.4-2c0.3-0.7,0.7-1.3,1.2-1.9
		c0.5-0.6,1.3-1.1,2.1-1.5c0.9-0.4,1.9-0.6,3.1-0.6c1.1,0,2.1,0.2,3.2,0.5c1,0.3,1.9,1,2.6,1.9l-2.2,2.1c-0.3-0.6-0.8-1-1.4-1.3
		c-0.6-0.3-1.3-0.5-2.1-0.5s-1.4,0.1-1.9,0.3s-0.9,0.5-1.2,0.8s-0.5,0.7-0.6,1.1c-0.1,0.4-0.2,0.7-0.2,1c0,0.9,0.2,1.6,0.7,2.1
		s1.1,0.9,1.8,1.2s1.5,0.6,2.4,0.8s1.7,0.6,2.4,1s1.3,1,1.8,1.7s0.7,1.7,0.7,3c0,1-0.2,1.9-0.6,2.8c-0.4,0.8-0.9,1.5-1.5,2.1
		s-1.4,1-2.2,1.3c-0.9,0.3-1.8,0.4-2.7,0.4c-1.3,0-2.5-0.2-3.7-0.7s-2.1-1.2-2.8-2.2L193.1,56.5z"/>
	<path class="st1" d="M212.1,39.7v13c0,0.7,0.1,1.3,0.3,2.1c0.2,0.7,0.5,1.4,0.9,2s0.9,1.1,1.6,1.5c0.6,0.4,1.4,0.6,2.4,0.6
		c0.9,0,1.7-0.2,2.4-0.6c0.6-0.4,1.2-0.9,1.6-1.5c0.4-0.6,0.7-1.3,0.9-2s0.3-1.4,0.3-2.1v-13h2.7v13.4c0,1.2-0.2,2.4-0.6,3.4
		c-0.4,1-0.9,1.9-1.6,2.6c-0.7,0.7-1.5,1.3-2.5,1.7c-0.9,0.4-2,0.6-3.1,0.6s-2.1-0.2-3.1-0.6c-0.9-0.4-1.8-1-2.5-1.7
		s-1.2-1.6-1.6-2.6c-0.4-1-0.6-2.1-0.6-3.4V39.7H212.1z"/>
	<path class="st1" d="M231.2,39.7h7.1c1.3,0,2.3,0.2,3.2,0.6c0.8,0.4,1.5,0.8,2,1.4c0.5,0.6,0.8,1.2,1,1.9s0.3,1.4,0.3,2.1
		c0,0.7-0.1,1.3-0.3,2c-0.2,0.6-0.6,1.2-1,1.7s-0.9,0.9-1.6,1.3c-0.6,0.3-1.3,0.6-2.1,0.6l5.7,9.7h-3.4l-5.1-9.3h-3V61h-2.7V39.7
		H231.2z M233.9,49h3.6c0.5,0,1.1,0,1.6-0.1s1-0.3,1.4-0.5s0.7-0.6,1-1c0.2-0.4,0.4-1,0.4-1.8s-0.1-1.3-0.4-1.8
		c-0.2-0.4-0.6-0.8-1-1s-0.9-0.4-1.4-0.5s-1-0.1-1.6-0.1h-3.6V49z"/>
	<path class="st1" d="M256.3,39.7h2.5l8.6,21.2h-3.2l-2-5.2h-9.6l-2,5.2h-3.2L256.3,39.7z M261.2,53.2l-3.7-9.7h-0.1l-3.8,9.7H261.2
		z"/>
	<path class="st1" d="M271.4,39.7h3.6l11.1,17.4h0.1V39.7h2.7v21.2h-3.5l-11.2-17.4h-0.1v17.4h-2.7V39.7z"/>
	<path class="st1" d="M309.5,44.3c-0.6-0.8-1.3-1.4-2.2-1.8c-0.9-0.4-1.8-0.6-2.7-0.6c-1.1,0-2.2,0.2-3.1,0.7
		c-0.9,0.4-1.7,1.1-2.4,1.8c-0.7,0.8-1.2,1.7-1.5,2.7c-0.4,1-0.5,2.2-0.5,3.4c0,1.1,0.2,2.2,0.5,3.2s0.8,1.9,1.5,2.6
		c0.6,0.8,1.4,1.4,2.4,1.8c0.9,0.4,2,0.7,3.2,0.7s2.2-0.2,3-0.7c0.9-0.5,1.6-1.2,2.2-2.1l2.3,1.8c-0.2,0.2-0.4,0.5-0.8,0.9
		s-0.9,0.8-1.5,1.2s-1.4,0.8-2.3,1.1s-1.9,0.5-3.1,0.5c-1.6,0-3-0.3-4.3-1c-1.3-0.6-2.4-1.5-3.3-2.5s-1.6-2.2-2.1-3.5
		s-0.7-2.6-0.7-4c0-1.6,0.3-3.1,0.8-4.5s1.2-2.6,2.1-3.6s2-1.8,3.3-2.4c1.3-0.6,2.7-0.8,4.3-0.8c1.3,0,2.6,0.3,3.9,0.8
		s2.3,1.4,3.1,2.5L309.5,44.3z"/>
	<path class="st1" d="M316.9,39.7h13v2.7h-10.3v6.3h9.5v2.7h-9.5v6.8h10.8v2.7h-13.5V39.7z"/>
	<path class="st1" d="M159.7,83.6c0.5,0.8,1.1,1.4,1.9,1.7c0.8,0.4,1.6,0.6,2.4,0.6c0.5,0,0.9-0.1,1.4-0.2c0.5-0.1,0.9-0.4,1.3-0.7
		c0.4-0.3,0.7-0.7,1-1.1c0.2-0.4,0.4-0.9,0.4-1.5c0-0.8-0.2-1.4-0.7-1.9c-0.5-0.4-1.1-0.8-1.8-1.1s-1.5-0.6-2.4-0.8
		c-0.9-0.3-1.7-0.6-2.4-1.1s-1.3-1.1-1.8-1.9c-0.5-0.8-0.7-1.9-0.7-3.3c0-0.6,0.1-1.3,0.4-2c0.3-0.7,0.7-1.3,1.2-1.9
		c0.5-0.6,1.3-1.1,2.1-1.5c0.9-0.4,1.9-0.6,3.1-0.6c1.1,0,2.1,0.2,3.2,0.5c1,0.3,1.9,1,2.6,1.9l-2.2,2.1c-0.3-0.6-0.8-1-1.4-1.3
		c-0.6-0.3-1.3-0.5-2.1-0.5s-1.4,0.1-1.9,0.3s-0.9,0.5-1.2,0.8s-0.5,0.7-0.6,1.1c-0.1,0.4-0.2,0.7-0.2,1c0,0.9,0.2,1.6,0.7,2.1
		s1.1,0.9,1.8,1.2s1.5,0.6,2.4,0.8s1.7,0.6,2.4,1s1.3,1,1.8,1.7s0.7,1.7,0.7,3c0,1-0.2,1.9-0.6,2.8c-0.4,0.8-0.9,1.5-1.5,2.1
		s-1.4,1-2.2,1.3c-0.9,0.3-1.8,0.4-2.7,0.4c-1.3,0-2.5-0.2-3.7-0.7s-2.1-1.2-2.8-2.2L159.7,83.6z"/>
	<path class="st1" d="M185.9,88.5c-1.5,0-2.9-0.3-4.2-0.9c-1.3-0.6-2.4-1.4-3.3-2.4c-0.9-1-1.6-2.2-2.2-3.5
		c-0.5-1.4-0.8-2.8-0.8-4.4c0-1.6,0.3-3,0.8-4.4s1.2-2.5,2.2-3.5c0.9-1,2-1.8,3.3-2.4c1.3-0.6,2.7-0.9,4.2-0.9s2.9,0.3,4.2,0.9
		c1.3,0.6,2.4,1.4,3.3,2.4c0.9,1,1.6,2.2,2.2,3.5c0.5,1.4,0.8,2.8,0.8,4.4c0,1.6-0.3,3-0.8,4.4s-1.2,2.5-2.2,3.5
		c-0.9,1-2,1.8-3.3,2.4C188.8,88.3,187.4,88.5,185.9,88.5z M185.9,85.9c1.2,0,2.2-0.2,3.1-0.7c0.9-0.4,1.7-1.1,2.4-1.8
		c0.7-0.8,1.2-1.7,1.5-2.7c0.4-1,0.5-2.1,0.5-3.3s-0.2-2.3-0.5-3.3c-0.4-1-0.9-1.9-1.5-2.7c-0.7-0.8-1.5-1.4-2.4-1.8
		c-0.9-0.4-2-0.7-3.1-0.7c-1.2,0-2.2,0.2-3.1,0.7c-0.9,0.4-1.7,1.1-2.4,1.8c-0.7,0.8-1.2,1.7-1.5,2.7c-0.4,1-0.5,2.1-0.5,3.3
		s0.2,2.3,0.5,3.3c0.4,1,0.9,1.9,1.5,2.7c0.7,0.8,1.5,1.4,2.4,1.8C183.7,85.6,184.7,85.9,185.9,85.9z"/>
	<path class="st1" d="M202,66.8h2.7v18.5h9.2V88h-12V66.8H202z"/>
	<path class="st1" d="M220.8,66.8v13c0,0.7,0.1,1.3,0.3,2.1c0.2,0.7,0.5,1.4,0.9,2s0.9,1.1,1.6,1.5c0.6,0.4,1.4,0.6,2.4,0.6
		c0.9,0,1.7-0.2,2.4-0.6c0.6-0.4,1.2-0.9,1.6-1.5c0.4-0.6,0.7-1.3,0.9-2s0.3-1.4,0.3-2.1v-13h2.7v13.4c0,1.2-0.2,2.4-0.6,3.4
		c-0.4,1-0.9,1.9-1.6,2.6c-0.7,0.7-1.5,1.3-2.5,1.7c-0.9,0.4-2,0.6-3.1,0.6s-2.1-0.2-3.1-0.6c-0.9-0.4-1.8-1-2.5-1.7
		s-1.2-1.6-1.6-2.6c-0.4-1-0.6-2.1-0.6-3.4V66.8H220.8z"/>
	<path class="st1" d="M244.3,69.5h-6.5v-2.7h15.7v2.7H247V88h-2.7V69.5z"/>
	<path class="st1" d="M258.1,66.8h2.7V88h-2.7V66.8z"/>
	<path class="st1" d="M276.9,88.5c-1.5,0-2.9-0.3-4.2-0.9c-1.3-0.6-2.4-1.4-3.3-2.4s-1.6-2.2-2.2-3.5c-0.5-1.4-0.8-2.8-0.8-4.4
		c0-1.6,0.3-3,0.8-4.4s1.2-2.5,2.2-3.5c0.9-1,2-1.8,3.3-2.4c1.3-0.6,2.7-0.9,4.2-0.9s2.9,0.3,4.2,0.9c1.3,0.6,2.4,1.4,3.3,2.4
		s1.6,2.2,2.2,3.5c0.5,1.4,0.8,2.8,0.8,4.4c0,1.6-0.3,3-0.8,4.4s-1.2,2.5-2.2,3.5c-0.9,1-2,1.8-3.3,2.4
		C279.9,88.3,278.5,88.5,276.9,88.5z M276.9,85.9c1.2,0,2.2-0.2,3.1-0.7c0.9-0.4,1.7-1.1,2.4-1.8c0.7-0.8,1.2-1.7,1.5-2.7
		c0.4-1,0.5-2.1,0.5-3.3s-0.2-2.3-0.5-3.3c-0.4-1-0.9-1.9-1.5-2.7c-0.7-0.8-1.5-1.4-2.4-1.8c-0.9-0.4-2-0.7-3.1-0.7
		c-1.2,0-2.2,0.2-3.1,0.7c-0.9,0.4-1.7,1.1-2.4,1.8c-0.7,0.8-1.2,1.7-1.5,2.7c-0.4,1-0.5,2.1-0.5,3.3s0.2,2.3,0.5,3.3
		c0.4,1,0.9,1.9,1.5,2.7c0.7,0.8,1.5,1.4,2.4,1.8C274.7,85.6,275.8,85.9,276.9,85.9z"/>
	<path class="st1" d="M293,66.8h3.6l11.1,17.4h0.1V66.8h2.7V88H307l-11.2-17.4h-0.1V88H293V66.8z"/>
	<path class="st1" d="M317.9,83.6c0.5,0.8,1.1,1.4,1.9,1.7c0.8,0.4,1.6,0.6,2.4,0.6c0.5,0,0.9-0.1,1.4-0.2c0.5-0.1,0.9-0.4,1.3-0.7
		s0.7-0.7,1-1.1c0.2-0.4,0.4-0.9,0.4-1.5c0-0.8-0.2-1.4-0.7-1.9c-0.5-0.4-1.1-0.8-1.8-1.1c-0.7-0.3-1.5-0.6-2.4-0.8
		s-1.7-0.6-2.4-1.1c-0.7-0.5-1.3-1.1-1.8-1.9c-0.5-0.8-0.7-1.9-0.7-3.3c0-0.6,0.1-1.3,0.4-2s0.7-1.3,1.2-1.9
		c0.5-0.6,1.3-1.1,2.1-1.5c0.9-0.4,1.9-0.6,3.1-0.6c1.1,0,2.1,0.2,3.2,0.5c1,0.3,1.9,1,2.6,1.9l-2.2,2.1c-0.3-0.6-0.8-1-1.4-1.3
		s-1.3-0.5-2.1-0.5c-0.8,0-1.4,0.1-1.9,0.3s-0.9,0.5-1.2,0.8s-0.5,0.7-0.6,1.1c-0.1,0.4-0.2,0.7-0.2,1c0,0.9,0.2,1.6,0.7,2.1
		s1.1,0.9,1.8,1.2c0.7,0.3,1.5,0.6,2.4,0.8s1.7,0.6,2.4,1c0.7,0.4,1.3,1,1.8,1.7s0.7,1.7,0.7,3c0,1-0.2,1.9-0.6,2.8
		c-0.4,0.8-0.9,1.5-1.5,2.1s-1.4,1-2.2,1.3c-0.9,0.3-1.8,0.4-2.7,0.4c-1.3,0-2.5-0.2-3.7-0.7s-2.1-1.2-2.8-2.2L317.9,83.6z"/>
</g>
</svg>
