<svg xmlns="http://www.w3.org/2000/svg" xmlns:xlink="http://www.w3.org/1999/xlink" width="873.168" height="162.057" viewBox="0 0 873.168 162.057"><defs><clipPath id="clip-path"><rect id="Rectangle_15621" data-name="Rectangle 15621" width="193.18" height="162.057" fill="#40a3c8"></rect></clipPath></defs><g id="Group_19882" data-name="Group 19882" transform="translate(-219.376 257.756)"><g id="Group_19879" data-name="Group 19879" transform="translate(412.239 -224.045)"><path id="Path_9773" data-name="Path 9773" d="M4.914-14.194v48.58h10V1.863h.136L35.26,34.386H45.942v-48.58h-10V18.4H35.8L15.528-14.194ZM61.523,16.832a21.111,21.111,0,0,1,.408-4.15,10.589,10.589,0,0,1,1.395-3.606,7.431,7.431,0,0,1,6.7-3.538,7.96,7.96,0,0,1,4.116.987A7.736,7.736,0,0,1,76.8,9.075a10.589,10.589,0,0,1,1.395,3.606,21.111,21.111,0,0,1,.408,4.15,20.6,20.6,0,0,1-.408,4.116A10.966,10.966,0,0,1,76.8,24.554a7.344,7.344,0,0,1-2.654,2.551,8.187,8.187,0,0,1-4.116.953,8,8,0,0,1-4.082-.953,7.429,7.429,0,0,1-2.62-2.551,10.966,10.966,0,0,1-1.395-3.606A20.6,20.6,0,0,1,61.523,16.832Zm-9.662,0a21.315,21.315,0,0,0,1.293,7.62,16.531,16.531,0,0,0,3.674,5.817,16.072,16.072,0,0,0,5.715,3.708,20.562,20.562,0,0,0,7.484,1.293,20.836,20.836,0,0,0,7.518-1.293A16.013,16.013,0,0,0,83.3,30.27a16.531,16.531,0,0,0,3.674-5.817,21.315,21.315,0,0,0,1.293-7.62A21.594,21.594,0,0,0,86.97,9.177,16.021,16.021,0,0,0,77.547-.416a20.358,20.358,0,0,0-7.518-1.327A20.091,20.091,0,0,0,62.544-.416a16.087,16.087,0,0,0-9.389,9.594A21.594,21.594,0,0,0,51.862,16.832ZM93.162-.791V34.386h9.662V18.533a19.443,19.443,0,0,1,.476-4.423,9.685,9.685,0,0,1,1.6-3.572,7.777,7.777,0,0,1,2.96-2.415,10.293,10.293,0,0,1,4.491-.885,17.254,17.254,0,0,1,1.837.1q.953.1,1.633.238V-1.4a7.535,7.535,0,0,0-2.109-.34,11.537,11.537,0,0,0-3.538.544,12.965,12.965,0,0,0-3.2,1.531,12.035,12.035,0,0,0-2.654,2.381,11.882,11.882,0,0,0-1.837,3.028h-.136V-.791Zm37.354,0V-11.337h-9.662V-.791H115V5.673h5.851V26.425a8.988,8.988,0,0,0,.885,4.286,6.3,6.3,0,0,0,2.415,2.517,10.028,10.028,0,0,0,3.538,1.191,28.205,28.205,0,0,0,4.252.306q1.429,0,2.926-.068a22.99,22.99,0,0,0,2.722-.272V26.9a13.535,13.535,0,0,1-1.429.2q-.748.068-1.565.068-2.449,0-3.266-.816t-.816-3.266V5.673h7.076V-.791Zm10.342-13.4v48.58h9.662V15.947q0-5.375,1.769-7.722T158,5.877q3.47,0,4.831,2.143t1.361,6.5V34.386h9.662V12.749a28.353,28.353,0,0,0-.578-5.953,11.322,11.322,0,0,0-2.007-4.559,9.432,9.432,0,0,0-3.912-2.926A16.409,16.409,0,0,0,161-1.743a12.671,12.671,0,0,0-5.579,1.395,11.188,11.188,0,0,0-4.695,4.457h-.2v-18.3Zm62.664,27.216H187.8a11.09,11.09,0,0,1,.442-2.313,7.1,7.1,0,0,1,1.293-2.449,7.319,7.319,0,0,1,2.449-1.939,8.4,8.4,0,0,1,3.844-.782,6.785,6.785,0,0,1,5.273,1.905A11.167,11.167,0,0,1,203.522,13.022ZM187.8,19.145h25.379a24.834,24.834,0,0,0-.68-7.825,19.152,19.152,0,0,0-3.1-6.668A15.616,15.616,0,0,0,203.93-.008a16.727,16.727,0,0,0-7.825-1.735,18.219,18.219,0,0,0-7.314,1.429,17.006,17.006,0,0,0-9.355,9.8,20.516,20.516,0,0,0-1.293,7.348,21.418,21.418,0,0,0,1.259,7.484,17,17,0,0,0,3.572,5.851,15.562,15.562,0,0,0,5.647,3.776,20.091,20.091,0,0,0,7.484,1.327,18.426,18.426,0,0,0,10.206-2.722q4.218-2.722,6.26-9.049h-8.5a6.068,6.068,0,0,1-2.586,3.1,9.906,9.906,0,0,1-11.295-.646Q188.009,23.84,187.8,19.145ZM217.538-.791V34.386H227.2V18.533a19.443,19.443,0,0,1,.476-4.423,9.685,9.685,0,0,1,1.6-3.572,7.777,7.777,0,0,1,2.96-2.415,10.293,10.293,0,0,1,4.491-.885,17.254,17.254,0,0,1,1.837.1q.953.1,1.633.238V-1.4a7.535,7.535,0,0,0-2.109-.34,11.537,11.537,0,0,0-3.538.544,12.965,12.965,0,0,0-3.2,1.531A12.034,12.034,0,0,0,228.7,2.714a11.883,11.883,0,0,0-1.837,3.028h-.136V-.791Zm26.331,0V34.386h9.662V15.947q0-5.375,1.769-7.722t5.715-2.347q3.47,0,4.831,2.143t1.361,6.5V34.386h9.662V12.749A28.354,28.354,0,0,0,276.29,6.8a11.323,11.323,0,0,0-2.007-4.559,9.432,9.432,0,0,0-3.912-2.926,16.409,16.409,0,0,0-6.362-1.055,13.773,13.773,0,0,0-5.987,1.395,11.086,11.086,0,0,0-4.763,4.457h-.2v-4.9Zm64.842,19.051H298.369A16.045,16.045,0,0,0,300,26.017a15.292,15.292,0,0,0,4.593,5.375,19.6,19.6,0,0,0,6.668,3.1,30.692,30.692,0,0,0,7.791.987,29.912,29.912,0,0,0,8.743-1.157,18.488,18.488,0,0,0,6.328-3.232,13.451,13.451,0,0,0,3.844-4.933,14.845,14.845,0,0,0,1.293-6.192,11.91,11.91,0,0,0-1.735-6.7,14.493,14.493,0,0,0-4.116-4.184,18.1,18.1,0,0,0-4.8-2.279q-2.415-.714-3.776-.987-4.559-1.157-7.382-1.905a27.384,27.384,0,0,1-4.423-1.5A4.858,4.858,0,0,1,310.888.774a4.366,4.366,0,0,1-.544-2.313,4.568,4.568,0,0,1,.68-2.586,5.909,5.909,0,0,1,1.735-1.7,6.916,6.916,0,0,1,2.347-.953,12.519,12.519,0,0,1,2.586-.272,18.22,18.22,0,0,1,3.64.34,8.773,8.773,0,0,1,2.96,1.157,6.011,6.011,0,0,1,2.075,2.245A8.589,8.589,0,0,1,327.286.3h10.342a14.92,14.92,0,0,0-1.6-7.178,13.94,13.94,0,0,0-4.321-4.865,18.243,18.243,0,0,0-6.226-2.756,30.906,30.906,0,0,0-7.314-.85,24.891,24.891,0,0,0-6.532.885,18.236,18.236,0,0,0-5.851,2.722A14.488,14.488,0,0,0,301.6-7.152a12.72,12.72,0,0,0-1.6,6.5,11.879,11.879,0,0,0,1.259,5.681,12.016,12.016,0,0,0,3.3,3.912,18.234,18.234,0,0,0,4.627,2.551,46.519,46.519,0,0,0,5.307,1.667q2.654.748,5.239,1.361a32.937,32.937,0,0,1,4.627,1.429,9.983,9.983,0,0,1,3.3,2.041,4.262,4.262,0,0,1,1.259,3.2,4.7,4.7,0,0,1-.953,3.028,6.68,6.68,0,0,1-2.381,1.871,10.653,10.653,0,0,1-3.062.919,21.28,21.28,0,0,1-3.062.238,16.238,16.238,0,0,1-4.082-.51,10.162,10.162,0,0,1-3.436-1.565,7.729,7.729,0,0,1-2.347-2.756A8.91,8.91,0,0,1,308.711,18.261ZM342.8,10.028a11.223,11.223,0,0,1,1.7-5.647A11.583,11.583,0,0,1,348.31.774a16.6,16.6,0,0,1,5.205-1.939,29.592,29.592,0,0,1,5.817-.578,39.425,39.425,0,0,1,5.375.374A16.442,16.442,0,0,1,369.674.094a9.787,9.787,0,0,1,3.674,3.028,8.46,8.46,0,0,1,1.429,5.137v18.3a36.754,36.754,0,0,0,.272,4.559A8.24,8.24,0,0,0,376,34.386h-9.8a13.867,13.867,0,0,1-.442-1.667,14.513,14.513,0,0,1-.238-1.735,12.59,12.59,0,0,1-5.443,3.334,21.848,21.848,0,0,1-6.4.953,17.279,17.279,0,0,1-4.695-.612,10.752,10.752,0,0,1-3.81-1.905,8.868,8.868,0,0,1-2.552-3.266,11.042,11.042,0,0,1-.919-4.695,10.257,10.257,0,0,1,1.055-4.933,8.818,8.818,0,0,1,2.722-3.1,12.193,12.193,0,0,1,3.81-1.735,40.676,40.676,0,0,1,4.32-.919q2.177-.34,4.286-.544a25.778,25.778,0,0,0,3.742-.612,6.523,6.523,0,0,0,2.586-1.191,2.613,2.613,0,0,0,.885-2.279A5.127,5.127,0,0,0,364.606,7a3.753,3.753,0,0,0-1.361-1.429,5.353,5.353,0,0,0-1.973-.68,16.146,16.146,0,0,0-2.415-.17,7.333,7.333,0,0,0-4.491,1.225,5.467,5.467,0,0,0-1.905,4.082Zm22.317,7.144a4.334,4.334,0,0,1-1.531.85,15.635,15.635,0,0,1-1.973.51q-1.055.2-2.211.34t-2.313.34a17.45,17.45,0,0,0-2.143.544,6.336,6.336,0,0,0-1.837.919,4.366,4.366,0,0,0-1.259,1.463,4.706,4.706,0,0,0-.476,2.245,4.545,4.545,0,0,0,.476,2.177,3.651,3.651,0,0,0,1.293,1.395,5.456,5.456,0,0,0,1.905.714,12.159,12.159,0,0,0,2.245.2,8.541,8.541,0,0,0,4.423-.953,6.371,6.371,0,0,0,2.313-2.279,7.289,7.289,0,0,0,.919-2.688,18.456,18.456,0,0,0,.17-2.177ZM380.9-.791V34.386h9.662V15.947q0-5.375,1.769-7.722t5.715-2.347q3.47,0,4.831,2.143t1.361,6.5V34.386H413.9V12.749a28.352,28.352,0,0,0-.578-5.953,11.323,11.323,0,0,0-2.007-4.559A9.432,9.432,0,0,0,407.4-.688a16.409,16.409,0,0,0-6.362-1.055,13.773,13.773,0,0,0-5.987,1.395,11.086,11.086,0,0,0-4.763,4.457h-.2v-4.9Zm86,19.868V-14.194H456.221V18.6q0,1.293-.1,2.688a8,8,0,0,1-.612,2.586,4.3,4.3,0,0,1-1.667,1.939,6,6,0,0,1-3.266.748,6.772,6.772,0,0,1-3.1-.612,4.77,4.77,0,0,1-1.871-1.667,6.954,6.954,0,0,1-.953-2.551,18.286,18.286,0,0,1-.272-3.266V16.287H434.72v4.218a15.643,15.643,0,0,0,1.361,6.838,13.144,13.144,0,0,0,3.606,4.627,14.809,14.809,0,0,0,5.1,2.654,20.641,20.641,0,0,0,5.919.85,18.826,18.826,0,0,0,8.641-1.667,12.8,12.8,0,0,0,7.076-9.492A32.064,32.064,0,0,0,466.9,19.077Zm15.581-2.245a21.111,21.111,0,0,1,.408-4.15,10.588,10.588,0,0,1,1.395-3.606,7.431,7.431,0,0,1,6.7-3.538,7.96,7.96,0,0,1,4.116.987,7.736,7.736,0,0,1,2.654,2.551,10.59,10.59,0,0,1,1.395,3.606,21.111,21.111,0,0,1,.408,4.15,20.6,20.6,0,0,1-.408,4.116,10.967,10.967,0,0,1-1.395,3.606,7.344,7.344,0,0,1-2.654,2.551,8.187,8.187,0,0,1-4.116.953,8,8,0,0,1-4.082-.953,7.429,7.429,0,0,1-2.62-2.551,10.965,10.965,0,0,1-1.395-3.606A20.6,20.6,0,0,1,482.484,16.832Zm-9.662,0a21.315,21.315,0,0,0,1.293,7.62,16.531,16.531,0,0,0,3.674,5.817,16.073,16.073,0,0,0,5.715,3.708,20.562,20.562,0,0,0,7.484,1.293,20.835,20.835,0,0,0,7.518-1.293,16.013,16.013,0,0,0,5.749-3.708,16.532,16.532,0,0,0,3.674-5.817,21.315,21.315,0,0,0,1.293-7.62,21.594,21.594,0,0,0-1.293-7.654,16.021,16.021,0,0,0-9.424-9.594,20.358,20.358,0,0,0-7.518-1.327A20.091,20.091,0,0,0,483.5-.416a16.087,16.087,0,0,0-9.389,9.594A21.594,21.594,0,0,0,472.823,16.832Zm40.892-6.8a11.225,11.225,0,0,1,1.7-5.647,11.584,11.584,0,0,1,3.81-3.606,16.6,16.6,0,0,1,5.205-1.939,29.592,29.592,0,0,1,5.817-.578,39.425,39.425,0,0,1,5.375.374A16.443,16.443,0,0,1,540.59.094a9.786,9.786,0,0,1,3.674,3.028,8.461,8.461,0,0,1,1.429,5.137v18.3a36.766,36.766,0,0,0,.272,4.559,8.241,8.241,0,0,0,.953,3.266h-9.8a13.862,13.862,0,0,1-.442-1.667,14.513,14.513,0,0,1-.238-1.735A12.59,12.59,0,0,1,531,34.318a21.847,21.847,0,0,1-6.4.953,17.279,17.279,0,0,1-4.695-.612,10.751,10.751,0,0,1-3.81-1.905,8.868,8.868,0,0,1-2.551-3.266,11.042,11.042,0,0,1-.919-4.695,10.257,10.257,0,0,1,1.055-4.933,8.817,8.817,0,0,1,2.722-3.1,12.194,12.194,0,0,1,3.81-1.735,40.675,40.675,0,0,1,4.321-.919q2.177-.34,4.286-.544a25.777,25.777,0,0,0,3.742-.612,6.523,6.523,0,0,0,2.586-1.191,2.614,2.614,0,0,0,.885-2.279A5.126,5.126,0,0,0,535.521,7a3.753,3.753,0,0,0-1.361-1.429,5.353,5.353,0,0,0-1.973-.68,16.146,16.146,0,0,0-2.415-.17,7.333,7.333,0,0,0-4.491,1.225,5.467,5.467,0,0,0-1.905,4.082Zm22.317,7.144a4.334,4.334,0,0,1-1.531.85,15.632,15.632,0,0,1-1.973.51q-1.055.2-2.211.34t-2.313.34a17.443,17.443,0,0,0-2.143.544,6.336,6.336,0,0,0-1.837.919,4.367,4.367,0,0,0-1.259,1.463,4.707,4.707,0,0,0-.476,2.245,4.546,4.546,0,0,0,.476,2.177,3.652,3.652,0,0,0,1.293,1.395,5.456,5.456,0,0,0,1.905.714,12.16,12.16,0,0,0,2.245.2,8.541,8.541,0,0,0,4.423-.953,6.371,6.371,0,0,0,2.313-2.279,7.288,7.288,0,0,0,.919-2.688,18.462,18.462,0,0,0,.17-2.177Zm23.95-.34a19.4,19.4,0,0,1,.442-4.184,11.065,11.065,0,0,1,1.463-3.606A7.722,7.722,0,0,1,564.54,6.49a7.849,7.849,0,0,1,4.014-.953A7,7,0,0,1,572.4,6.558a7.722,7.722,0,0,1,2.552,2.654,12.487,12.487,0,0,1,1.395,3.674,19.534,19.534,0,0,1,0,8.267,10.734,10.734,0,0,1-1.429,3.538,7.435,7.435,0,0,1-2.586,2.449,7.889,7.889,0,0,1-3.98.919,7.662,7.662,0,0,1-3.98-.953,7.523,7.523,0,0,1-2.586-2.551,10.966,10.966,0,0,1-1.395-3.606A20.6,20.6,0,0,1,559.981,16.832ZM586.108,46.7V-.791h-9.185V3.7h-.136a9.394,9.394,0,0,0-4.525-4.184A15.26,15.26,0,0,0,566.1-1.743a14.718,14.718,0,0,0-6.974,1.565A14.683,14.683,0,0,0,554.2,4.006a17.936,17.936,0,0,0-2.926,6.022,25.869,25.869,0,0,0-.953,7.008,22.848,22.848,0,0,0,1.429,8.607,16.588,16.588,0,0,0,3.606,5.647,12.9,12.9,0,0,0,4.8,3.062,15.285,15.285,0,0,0,5.069.919,16.889,16.889,0,0,0,6.328-1.225,9.522,9.522,0,0,0,4.763-4.082h.136V46.7Zm38.919-12.315V-.791h-9.662V17.648q0,5.375-1.769,7.722t-5.715,2.347q-3.47,0-4.831-2.143t-1.361-6.5V-.791h-9.662V20.846a28.352,28.352,0,0,0,.578,5.953,11.322,11.322,0,0,0,2.007,4.559,9.181,9.181,0,0,0,3.912,2.892,16.9,16.9,0,0,0,6.362,1.021,14.058,14.058,0,0,0,5.987-1.361,10.869,10.869,0,0,0,4.763-4.423h.2v4.9Zm15.921-40.62v-7.961h-9.662v7.961ZM631.287-.791V34.386h9.662V-.791Zm15.921,0V34.386h9.662V15.947q0-5.375,1.769-7.722t5.715-2.347q3.47,0,4.831,2.143t1.361,6.5V34.386h9.662V12.749a28.352,28.352,0,0,0-.578-5.953,11.323,11.323,0,0,0-2.007-4.559,9.431,9.431,0,0,0-3.912-2.926,16.409,16.409,0,0,0-6.362-1.055A13.773,13.773,0,0,0,661.36-.348,11.086,11.086,0,0,0,656.6,4.108h-.2v-4.9ZM18.409,89.466l10.75-32.387H21.811l-7.3,22.771h-.091L7.2,57.079H-.1L10.38,89.466ZM44.536,75.223H34.058a7.393,7.393,0,0,1,.295-1.542,4.735,4.735,0,0,1,.862-1.633,4.879,4.879,0,0,1,1.633-1.293,5.6,5.6,0,0,1,2.563-.522,4.524,4.524,0,0,1,3.515,1.27A7.444,7.444,0,0,1,44.536,75.223ZM34.058,79.305H50.977a16.556,16.556,0,0,0-.454-5.216,12.768,12.768,0,0,0-2.064-4.445,10.411,10.411,0,0,0-3.651-3.107,11.151,11.151,0,0,0-5.216-1.157,12.146,12.146,0,0,0-4.876.953,11.337,11.337,0,0,0-6.237,6.532,13.677,13.677,0,0,0-.862,4.9,14.279,14.279,0,0,0,.839,4.99,11.331,11.331,0,0,0,2.381,3.9A10.374,10.374,0,0,0,34.6,89.171a13.394,13.394,0,0,0,4.99.885,12.284,12.284,0,0,0,6.8-1.814,10.763,10.763,0,0,0,4.173-6.033H44.9a4.046,4.046,0,0,1-1.724,2.064,5.742,5.742,0,0,1-3.357.975,5.758,5.758,0,0,1-4.173-1.406A6.511,6.511,0,0,1,34.058,79.305Zm28.894-13.29V58.984H56.511v7.031h-3.9v4.309h3.9V84.159a5.992,5.992,0,0,0,.59,2.858,4.2,4.2,0,0,0,1.61,1.678,6.686,6.686,0,0,0,2.359.794,18.8,18.8,0,0,0,2.835.2q.953,0,1.95-.045a15.326,15.326,0,0,0,1.814-.181v-4.99a9.023,9.023,0,0,1-.953.136q-.5.045-1.043.045a3.152,3.152,0,0,1-2.177-.544,3.152,3.152,0,0,1-.544-2.177V70.324h4.717V66.015Zm23.587,9.208H76.061a7.393,7.393,0,0,1,.295-1.542,4.735,4.735,0,0,1,.862-1.633,4.879,4.879,0,0,1,1.633-1.293,5.6,5.6,0,0,1,2.563-.522,4.524,4.524,0,0,1,3.515,1.27A7.445,7.445,0,0,1,86.539,75.223ZM76.061,79.305H92.98a16.556,16.556,0,0,0-.454-5.216,12.768,12.768,0,0,0-2.064-4.445,10.411,10.411,0,0,0-3.651-3.107,11.151,11.151,0,0,0-5.216-1.157,12.146,12.146,0,0,0-4.876.953,11.337,11.337,0,0,0-6.237,6.532,13.677,13.677,0,0,0-.862,4.9,14.279,14.279,0,0,0,.839,4.99,11.331,11.331,0,0,0,2.381,3.9,10.375,10.375,0,0,0,3.765,2.517,13.394,13.394,0,0,0,4.99.885,12.284,12.284,0,0,0,6.8-1.814,10.763,10.763,0,0,0,4.173-6.033H86.9a4.046,4.046,0,0,1-1.724,2.064,6.6,6.6,0,0,1-7.53-.431A6.512,6.512,0,0,1,76.061,79.305ZM96.79,66.015V89.466h6.441V78.9a12.962,12.962,0,0,1,.318-2.948,6.457,6.457,0,0,1,1.066-2.381,5.185,5.185,0,0,1,1.973-1.61,6.862,6.862,0,0,1,2.994-.59,11.5,11.5,0,0,1,1.225.068q.635.068,1.089.159V65.606a5.023,5.023,0,0,0-1.406-.227,7.691,7.691,0,0,0-2.359.363A8.643,8.643,0,0,0,106,66.763a8.024,8.024,0,0,0-1.769,1.588A7.921,7.921,0,0,0,103,70.369h-.091V66.015Zm24.267-3.629V57.079h-6.441v5.307Zm-6.441,3.629V89.466h6.441V66.015Zm11.521,0V89.466h6.441V77.173q0-3.583,1.179-5.148a4.462,4.462,0,0,1,3.81-1.565,3.514,3.514,0,0,1,3.221,1.429,8.218,8.218,0,0,1,.907,4.332V89.466h6.441V75.041a18.9,18.9,0,0,0-.386-3.969,7.549,7.549,0,0,0-1.338-3.039,6.288,6.288,0,0,0-2.608-1.95,10.939,10.939,0,0,0-4.241-.7,9.182,9.182,0,0,0-3.992.93,7.391,7.391,0,0,0-3.175,2.971h-.136V66.015Zm26.626,7.212a7.482,7.482,0,0,1,1.134-3.765,7.722,7.722,0,0,1,2.54-2.4,11.069,11.069,0,0,1,3.47-1.293,19.729,19.729,0,0,1,3.878-.386,26.284,26.284,0,0,1,3.583.249,10.962,10.962,0,0,1,3.311.975,6.524,6.524,0,0,1,2.449,2.019,5.641,5.641,0,0,1,.953,3.425v12.2a24.5,24.5,0,0,0,.181,3.039,5.494,5.494,0,0,0,.635,2.177h-6.532a9.242,9.242,0,0,1-.295-1.111,9.676,9.676,0,0,1-.159-1.157,8.393,8.393,0,0,1-3.629,2.223,14.565,14.565,0,0,1-4.264.635,11.519,11.519,0,0,1-3.13-.408,7.168,7.168,0,0,1-2.54-1.27,5.912,5.912,0,0,1-1.7-2.177,7.361,7.361,0,0,1-.612-3.13,6.838,6.838,0,0,1,.7-3.289,5.878,5.878,0,0,1,1.814-2.064,8.129,8.129,0,0,1,2.54-1.157,27.117,27.117,0,0,1,2.88-.612q1.451-.227,2.858-.363a17.186,17.186,0,0,0,2.495-.408,4.349,4.349,0,0,0,1.724-.794,1.742,1.742,0,0,0,.59-1.52,3.418,3.418,0,0,0-.34-1.656,2.5,2.5,0,0,0-.907-.953,3.569,3.569,0,0,0-1.315-.454,10.764,10.764,0,0,0-1.61-.113,4.889,4.889,0,0,0-2.994.816,3.645,3.645,0,0,0-1.27,2.722Zm14.878,4.763a2.889,2.889,0,0,1-1.021.567,10.425,10.425,0,0,1-1.315.34q-.7.136-1.474.227t-1.542.227a11.631,11.631,0,0,0-1.429.363,4.225,4.225,0,0,0-1.225.612,2.911,2.911,0,0,0-.839.975,3.137,3.137,0,0,0-.318,1.5,3.03,3.03,0,0,0,.318,1.452,2.434,2.434,0,0,0,.862.93,3.638,3.638,0,0,0,1.27.476,8.107,8.107,0,0,0,1.5.136,5.694,5.694,0,0,0,2.948-.635,4.247,4.247,0,0,0,1.542-1.52,4.86,4.86,0,0,0,.612-1.792,12.31,12.31,0,0,0,.113-1.452Zm11.431-11.975V89.466h6.441V78.9a12.962,12.962,0,0,1,.318-2.948,6.456,6.456,0,0,1,1.066-2.381,5.185,5.185,0,0,1,1.973-1.61,6.862,6.862,0,0,1,2.994-.59,11.5,11.5,0,0,1,1.225.068q.635.068,1.089.159V65.606a5.023,5.023,0,0,0-1.406-.227,7.691,7.691,0,0,0-2.359.363,8.644,8.644,0,0,0-2.132,1.021,8.024,8.024,0,0,0-1.769,1.588,7.921,7.921,0,0,0-1.225,2.019H185.2V66.015Zm29.212,26.354,9.8-26.354h-6.668l-5.126,16.057H206.2l-5.307-16.057h-6.849l8.21,22a3.872,3.872,0,0,1,.272,1.452,3.216,3.216,0,0,1-.612,1.905,2.5,2.5,0,0,1-1.882,1,13.364,13.364,0,0,1-1.905-.045q-.953-.091-1.86-.181v5.307q1,.091,1.973.159t1.973.068a9.342,9.342,0,0,0,5.171-1.225A7.932,7.932,0,0,0,208.285,92.369Zm25.265-35.29V89.466h6.668V66.74h.091l7.938,22.725h5.489l7.938-22.952h.091V89.466h6.668V57.079H258.407L251.24,79.35h-.091l-7.575-22.272ZM289.8,75.223H279.318a7.389,7.389,0,0,1,.295-1.542,4.735,4.735,0,0,1,.862-1.633,4.879,4.879,0,0,1,1.633-1.293,5.6,5.6,0,0,1,2.563-.522,4.523,4.523,0,0,1,3.515,1.27A7.444,7.444,0,0,1,289.8,75.223Zm-10.478,4.082h16.919a16.557,16.557,0,0,0-.454-5.216,12.769,12.769,0,0,0-2.064-4.445,10.411,10.411,0,0,0-3.651-3.107,11.151,11.151,0,0,0-5.216-1.157,12.146,12.146,0,0,0-4.876.953,11.337,11.337,0,0,0-6.237,6.532,13.677,13.677,0,0,0-.862,4.9,14.278,14.278,0,0,0,.839,4.99,11.331,11.331,0,0,0,2.381,3.9,10.374,10.374,0,0,0,3.765,2.517,13.394,13.394,0,0,0,4.99.885,12.284,12.284,0,0,0,6.8-1.814,10.764,10.764,0,0,0,4.173-6.033h-5.67a4.046,4.046,0,0,1-1.724,2.064,6.6,6.6,0,0,1-7.53-.431A6.511,6.511,0,0,1,279.318,79.305Zm37.376-1.633a14.306,14.306,0,0,1-.272,2.812,7.623,7.623,0,0,1-.907,2.427,4.824,4.824,0,0,1-1.7,1.7,5.108,5.108,0,0,1-2.654.635,4.786,4.786,0,0,1-2.563-.658,5.658,5.658,0,0,1-1.769-1.724,7.433,7.433,0,0,1-1.021-2.427,11.942,11.942,0,0,1-.318-2.722,12.93,12.93,0,0,1,.295-2.79,7.418,7.418,0,0,1,.953-2.381,5.021,5.021,0,0,1,1.746-1.678,5.233,5.233,0,0,1,2.676-.635,4.986,4.986,0,0,1,2.631.635,5.236,5.236,0,0,1,1.7,1.656,6.818,6.818,0,0,1,.93,2.359A13.966,13.966,0,0,1,316.694,77.672Zm.091,8.8v2.994h6.124V57.079h-6.441V68.872h-.091a6.914,6.914,0,0,0-2.971-2.608,9.221,9.221,0,0,0-3.969-.885,9.469,9.469,0,0,0-7.779,3.719,11.848,11.848,0,0,0-1.95,3.878,15.828,15.828,0,0,0-.658,4.559,16.85,16.85,0,0,0,.658,4.717,12.557,12.557,0,0,0,1.95,4.014,9.288,9.288,0,0,0,3.289,2.767,10.027,10.027,0,0,0,4.627,1.021,9.88,9.88,0,0,0,4.15-.839,6.644,6.644,0,0,0,2.971-2.744Zm17.6-24.086V57.079h-6.441v5.307Zm-6.441,3.629V89.466h6.441V66.015Zm27.488,8.255h6.305a8.561,8.561,0,0,0-3.561-6.691,10.715,10.715,0,0,0-3.447-1.656,14.7,14.7,0,0,0-4.014-.544,12.791,12.791,0,0,0-5.08.953,10.691,10.691,0,0,0-3.765,2.654,11.379,11.379,0,0,0-2.336,4.037,15.622,15.622,0,0,0-.794,5.058,13.134,13.134,0,0,0,.862,4.831,11.258,11.258,0,0,0,2.4,3.788,10.711,10.711,0,0,0,3.742,2.472,12.835,12.835,0,0,0,4.831.885,11.712,11.712,0,0,0,7.666-2.449,10.626,10.626,0,0,0,3.629-7.121h-6.214a6.115,6.115,0,0,1-1.565,3.47,4.719,4.719,0,0,1-3.561,1.293,4.55,4.55,0,0,1-2.54-.68,5.081,5.081,0,0,1-1.656-1.746,8,8,0,0,1-.884-2.381,12.738,12.738,0,0,1-.272-2.586,13.285,13.285,0,0,1,.272-2.654,7.837,7.837,0,0,1,.93-2.449,5.588,5.588,0,0,1,1.7-1.814,4.523,4.523,0,0,1,2.585-.7Q354.8,70.233,355.431,74.27Zm9.8-1.043a7.482,7.482,0,0,1,1.134-3.765,7.722,7.722,0,0,1,2.54-2.4,11.069,11.069,0,0,1,3.47-1.293,19.73,19.73,0,0,1,3.878-.386,26.284,26.284,0,0,1,3.583.249,10.962,10.962,0,0,1,3.311.975,6.524,6.524,0,0,1,2.449,2.019,5.64,5.64,0,0,1,.953,3.425v12.2a24.509,24.509,0,0,0,.181,3.039,5.493,5.493,0,0,0,.635,2.177h-6.532a9.227,9.227,0,0,1-.295-1.111,9.661,9.661,0,0,1-.159-1.157,8.393,8.393,0,0,1-3.629,2.223,14.565,14.565,0,0,1-4.264.635,11.519,11.519,0,0,1-3.13-.408,7.168,7.168,0,0,1-2.54-1.27,5.912,5.912,0,0,1-1.7-2.177,7.361,7.361,0,0,1-.612-3.13,6.837,6.837,0,0,1,.7-3.289,5.878,5.878,0,0,1,1.814-2.064,8.129,8.129,0,0,1,2.54-1.157,27.115,27.115,0,0,1,2.88-.612q1.452-.227,2.858-.363a17.188,17.188,0,0,0,2.495-.408,4.349,4.349,0,0,0,1.724-.794,1.742,1.742,0,0,0,.59-1.52,3.418,3.418,0,0,0-.34-1.656,2.5,2.5,0,0,0-.907-.953,3.569,3.569,0,0,0-1.315-.454,10.764,10.764,0,0,0-1.61-.113,4.889,4.889,0,0,0-2.994.816,3.645,3.645,0,0,0-1.27,2.722Zm14.878,4.763a2.889,2.889,0,0,1-1.021.567,10.423,10.423,0,0,1-1.315.34q-.7.136-1.474.227t-1.542.227a11.632,11.632,0,0,0-1.429.363,4.225,4.225,0,0,0-1.225.612,2.911,2.911,0,0,0-.839.975,3.137,3.137,0,0,0-.318,1.5,3.03,3.03,0,0,0,.318,1.452,2.434,2.434,0,0,0,.862.93,3.638,3.638,0,0,0,1.27.476,8.107,8.107,0,0,0,1.5.136,5.694,5.694,0,0,0,2.948-.635,4.247,4.247,0,0,0,1.542-1.52,4.859,4.859,0,0,0,.612-1.792,12.311,12.311,0,0,0,.113-1.452Zm11.612-20.911V89.466h6.441V57.079ZM424.7,76.946l4.219-11.884H429l4.082,11.884Zm.68-19.868L413.129,89.466H420.3l2.54-7.212h12.111l2.449,7.212h7.394L432.679,57.079Zm26.535,24.766h-6.124a7.885,7.885,0,0,0,1.066,3.924,7.783,7.783,0,0,0,2.495,2.517,10.535,10.535,0,0,0,3.47,1.361,19.432,19.432,0,0,0,3.992.408,19.957,19.957,0,0,0,3.924-.386,9.948,9.948,0,0,0,3.425-1.338,7.123,7.123,0,0,0,3.357-6.4,5.458,5.458,0,0,0-.635-2.744,5.813,5.813,0,0,0-1.678-1.86,9.027,9.027,0,0,0-2.381-1.2,27.205,27.205,0,0,0-2.744-.771q-1.361-.318-2.676-.59a20.7,20.7,0,0,1-2.336-.612,4.895,4.895,0,0,1-1.656-.885,1.766,1.766,0,0,1-.635-1.406,1.738,1.738,0,0,1,.363-1.157,2.382,2.382,0,0,1,.885-.658,3.937,3.937,0,0,1,1.157-.295,11.117,11.117,0,0,1,1.179-.068,6.428,6.428,0,0,1,2.994.658,2.818,2.818,0,0,1,1.406,2.517h6.124a7.694,7.694,0,0,0-1.111-3.606,7.34,7.34,0,0,0-2.336-2.291,9.778,9.778,0,0,0-3.2-1.225,18.579,18.579,0,0,0-3.7-.363,20.141,20.141,0,0,0-3.719.34,10.242,10.242,0,0,0-3.266,1.179,6.52,6.52,0,0,0-2.336,2.291,7.056,7.056,0,0,0-.884,3.719,5.013,5.013,0,0,0,.635,2.608,5.514,5.514,0,0,0,1.678,1.769,9.379,9.379,0,0,0,2.381,1.134q1.338.431,2.744.748a38.493,38.493,0,0,1,5.375,1.452q1.928.726,1.928,2.177a2.384,2.384,0,0,1-.408,1.429,3.094,3.094,0,0,1-1.021.907,4.859,4.859,0,0,1-1.361.5,6.889,6.889,0,0,1-1.429.159,7.367,7.367,0,0,1-1.837-.227,4.764,4.764,0,0,1-1.565-.7,3.765,3.765,0,0,1-1.111-1.225A3.532,3.532,0,0,1,451.912,81.845Zm24.358,0h-6.124a7.885,7.885,0,0,0,1.066,3.924,7.783,7.783,0,0,0,2.495,2.517,10.536,10.536,0,0,0,3.47,1.361,19.431,19.431,0,0,0,3.992.408,19.957,19.957,0,0,0,3.924-.386,9.947,9.947,0,0,0,3.425-1.338,7.123,7.123,0,0,0,3.357-6.4,5.458,5.458,0,0,0-.635-2.744,5.812,5.812,0,0,0-1.678-1.86,9.026,9.026,0,0,0-2.381-1.2,27.211,27.211,0,0,0-2.744-.771q-1.361-.318-2.676-.59a20.7,20.7,0,0,1-2.336-.612,4.9,4.9,0,0,1-1.656-.885,1.766,1.766,0,0,1-.635-1.406,1.737,1.737,0,0,1,.363-1.157,2.382,2.382,0,0,1,.885-.658,3.937,3.937,0,0,1,1.157-.295,11.117,11.117,0,0,1,1.179-.068,6.428,6.428,0,0,1,2.994.658,2.818,2.818,0,0,1,1.406,2.517h6.124a7.7,7.7,0,0,0-1.111-3.606,7.341,7.341,0,0,0-2.336-2.291,9.779,9.779,0,0,0-3.2-1.225,18.579,18.579,0,0,0-3.7-.363,20.14,20.14,0,0,0-3.719.34,10.242,10.242,0,0,0-3.266,1.179,6.52,6.52,0,0,0-2.336,2.291,7.056,7.056,0,0,0-.884,3.719,5.013,5.013,0,0,0,.635,2.608A5.514,5.514,0,0,0,473,77.287a9.379,9.379,0,0,0,2.381,1.134q1.338.431,2.744.748A38.5,38.5,0,0,1,483.5,80.62q1.928.726,1.928,2.177a2.383,2.383,0,0,1-.408,1.429,3.094,3.094,0,0,1-1.021.907,4.861,4.861,0,0,1-1.361.5,6.889,6.889,0,0,1-1.429.159,7.368,7.368,0,0,1-1.837-.227,4.765,4.765,0,0,1-1.565-.7,3.766,3.766,0,0,1-1.111-1.225A3.533,3.533,0,0,1,476.27,81.845Zm25.084-4.082A14.073,14.073,0,0,1,501.626,75a7.06,7.06,0,0,1,.93-2.4,4.954,4.954,0,0,1,4.468-2.359,5.306,5.306,0,0,1,2.744.658,5.157,5.157,0,0,1,1.769,1.7,7.059,7.059,0,0,1,.93,2.4,14.073,14.073,0,0,1,.272,2.767,13.733,13.733,0,0,1-.272,2.744,7.31,7.31,0,0,1-.93,2.4,4.9,4.9,0,0,1-1.769,1.7,5.458,5.458,0,0,1-2.744.635,5.331,5.331,0,0,1-2.722-.635,4.953,4.953,0,0,1-1.746-1.7,7.311,7.311,0,0,1-.93-2.4A13.733,13.733,0,0,1,501.354,77.763Zm-6.441,0a14.209,14.209,0,0,0,.862,5.08,11.019,11.019,0,0,0,2.449,3.878,10.716,10.716,0,0,0,3.81,2.472,13.708,13.708,0,0,0,4.99.862,13.891,13.891,0,0,0,5.012-.862,10.676,10.676,0,0,0,3.833-2.472,11.02,11.02,0,0,0,2.449-3.878,14.209,14.209,0,0,0,.862-5.08,14.4,14.4,0,0,0-.862-5.1,10.68,10.68,0,0,0-6.282-6.4,13.572,13.572,0,0,0-5.012-.885,13.394,13.394,0,0,0-4.99.885,10.725,10.725,0,0,0-6.26,6.4A14.4,14.4,0,0,0,494.913,77.763ZM539.32,74.27h6.3a8.561,8.561,0,0,0-3.561-6.691,10.715,10.715,0,0,0-3.447-1.656,14.7,14.7,0,0,0-4.014-.544,12.791,12.791,0,0,0-5.08.953,10.692,10.692,0,0,0-3.765,2.654,11.381,11.381,0,0,0-2.336,4.037,15.625,15.625,0,0,0-.794,5.058,13.133,13.133,0,0,0,.862,4.831,11.257,11.257,0,0,0,2.4,3.788,10.712,10.712,0,0,0,3.742,2.472,12.835,12.835,0,0,0,4.831.885,11.711,11.711,0,0,0,7.666-2.449,10.626,10.626,0,0,0,3.629-7.121h-6.214a6.115,6.115,0,0,1-1.565,3.47,4.719,4.719,0,0,1-3.561,1.293,4.55,4.55,0,0,1-2.54-.68,5.081,5.081,0,0,1-1.656-1.746,8,8,0,0,1-.885-2.381,12.742,12.742,0,0,1-.272-2.586,13.289,13.289,0,0,1,.272-2.654,7.839,7.839,0,0,1,.93-2.449,5.588,5.588,0,0,1,1.7-1.814,4.523,4.523,0,0,1,2.585-.7Q538.685,70.233,539.32,74.27Zm16.692-11.884V57.079h-6.441v5.307Zm-6.441,3.629V89.466h6.441V66.015Zm11.249,7.212a7.482,7.482,0,0,1,1.134-3.765,7.722,7.722,0,0,1,2.54-2.4,11.07,11.07,0,0,1,3.47-1.293,19.729,19.729,0,0,1,3.878-.386,26.283,26.283,0,0,1,3.583.249,10.961,10.961,0,0,1,3.311.975,6.525,6.525,0,0,1,2.45,2.019,5.641,5.641,0,0,1,.953,3.425v12.2a24.5,24.5,0,0,0,.181,3.039,5.493,5.493,0,0,0,.635,2.177h-6.532a9.245,9.245,0,0,1-.295-1.111,9.679,9.679,0,0,1-.159-1.157,8.394,8.394,0,0,1-3.629,2.223,14.565,14.565,0,0,1-4.264.635,11.52,11.52,0,0,1-3.13-.408,7.167,7.167,0,0,1-2.54-1.27,5.912,5.912,0,0,1-1.7-2.177,7.362,7.362,0,0,1-.612-3.13,6.837,6.837,0,0,1,.7-3.289,5.878,5.878,0,0,1,1.814-2.064,8.129,8.129,0,0,1,2.54-1.157,27.112,27.112,0,0,1,2.88-.612q1.451-.227,2.858-.363a17.187,17.187,0,0,0,2.495-.408,4.349,4.349,0,0,0,1.724-.794,1.742,1.742,0,0,0,.59-1.52,3.417,3.417,0,0,0-.34-1.656,2.5,2.5,0,0,0-.907-.953,3.568,3.568,0,0,0-1.315-.454,10.764,10.764,0,0,0-1.61-.113,4.889,4.889,0,0,0-2.994.816,3.645,3.645,0,0,0-1.27,2.722ZM575.7,77.99a2.89,2.89,0,0,1-1.021.567,10.429,10.429,0,0,1-1.315.34q-.7.136-1.474.227t-1.542.227a11.634,11.634,0,0,0-1.429.363,4.225,4.225,0,0,0-1.225.612,2.912,2.912,0,0,0-.839.975,3.138,3.138,0,0,0-.317,1.5,3.031,3.031,0,0,0,.317,1.452,2.435,2.435,0,0,0,.862.93,3.637,3.637,0,0,0,1.27.476,8.106,8.106,0,0,0,1.5.136,5.694,5.694,0,0,0,2.948-.635,4.247,4.247,0,0,0,1.542-1.52,4.859,4.859,0,0,0,.612-1.792,12.317,12.317,0,0,0,.113-1.452Zm19.6-11.975V58.984h-6.441v7.031h-3.9v4.309h3.9V84.159a5.992,5.992,0,0,0,.59,2.858,4.2,4.2,0,0,0,1.61,1.678,6.686,6.686,0,0,0,2.359.794,18.8,18.8,0,0,0,2.835.2q.953,0,1.95-.045a15.325,15.325,0,0,0,1.814-.181v-4.99a9.025,9.025,0,0,1-.953.136q-.5.045-1.043.045a2.181,2.181,0,0,1-2.722-2.722V70.324h4.717V66.015Zm14.424-3.629V57.079h-6.441v5.307Zm-6.441,3.629V89.466h6.441V66.015Zm17.237,11.748A14.073,14.073,0,0,1,620.786,75a7.06,7.06,0,0,1,.93-2.4,4.954,4.954,0,0,1,4.468-2.359,5.307,5.307,0,0,1,2.744.658,5.157,5.157,0,0,1,1.769,1.7,7.061,7.061,0,0,1,.93,2.4,14.073,14.073,0,0,1,.272,2.767,13.733,13.733,0,0,1-.272,2.744,7.312,7.312,0,0,1-.93,2.4,4.9,4.9,0,0,1-1.769,1.7,5.458,5.458,0,0,1-2.744.635,5.331,5.331,0,0,1-2.722-.635,4.952,4.952,0,0,1-1.746-1.7,7.311,7.311,0,0,1-.93-2.4A13.733,13.733,0,0,1,620.514,77.763Zm-6.441,0a14.211,14.211,0,0,0,.862,5.08,11.02,11.02,0,0,0,2.449,3.878,10.717,10.717,0,0,0,3.81,2.472,13.709,13.709,0,0,0,4.99.862,13.891,13.891,0,0,0,5.012-.862,10.676,10.676,0,0,0,3.833-2.472,11.02,11.02,0,0,0,2.449-3.878,14.209,14.209,0,0,0,.862-5.08,14.4,14.4,0,0,0-.862-5.1,10.68,10.68,0,0,0-6.282-6.4,13.572,13.572,0,0,0-5.012-.885,13.4,13.4,0,0,0-4.99.885,10.725,10.725,0,0,0-6.26,6.4A14.4,14.4,0,0,0,614.073,77.763Zm28.441-11.748V89.466h6.441V77.173q0-3.583,1.179-5.148a4.462,4.462,0,0,1,3.81-1.565,3.514,3.514,0,0,1,3.221,1.429,8.218,8.218,0,0,1,.907,4.332V89.466h6.441V75.041a18.9,18.9,0,0,0-.386-3.969,7.548,7.548,0,0,0-1.338-3.039,6.288,6.288,0,0,0-2.608-1.95,10.94,10.94,0,0,0-4.241-.7,9.182,9.182,0,0,0-3.992.93,7.39,7.39,0,0,0-3.175,2.971h-.136V66.015Z" transform="translate(0.098 15.351)" fill="#40a3c8"></path></g><g id="Group_19881" data-name="Group 19881" transform="translate(219.376 -257.756)"><g id="Group_19880" data-name="Group 19880" transform="translate(0 0)" clip-path="url(#clip-path)"><path id="Path_9772" data-name="Path 9772" d="M126.093,122.931c-.627.4-.864,1.17-1.752,1.275-2.63.31-4.469,2.05-6.272,3.718a60.741,60.741,0,0,0-6.982,7.446,19.787,19.787,0,0,1-11.118,7.036,1.542,1.542,0,0,0-1.375,1.443,6.848,6.848,0,0,0,.664,4.92,3.974,3.974,0,0,1,.328,2.935c-.763,3.066-1.6,6.116-2.444,9.16-.133.476-.193,1.134-.919,1.188-.8.059-.761-.6-.907-1.1-.849-2.885-1.742-5.759-2.524-8.663a4.793,4.793,0,0,1,.385-3.833,4.106,4.106,0,0,0,.475-2.007c.169-3.341.171-3.312-3.226-3.5a16.44,16.44,0,0,1-10.918-4.437,11.228,11.228,0,0,1-3.3-11.425c1.172-4.732,4.224-7.92,8.658-9.895,1.171-.522,2.812-.778,3.289-1.927.435-1.045-.657-2.266-1.038-3.422-.577-1.756-1.131-3.523-1.773-5.256-.548-1.48-.733-1.634-2.2-.978a26.922,26.922,0,0,1-9.47,1.9,20.431,20.431,0,0,1-6.9-.56c-1.848-.539-3.429-2.032-4.894-3.394-6.59-6.128-6.268-16.685,1.467-21.848A28.694,28.694,0,0,1,75.079,77.1L70.365,63.357c.291-.7.812-.568,1.244-.57,3.18-.017,6.362.01,9.542-.036a1.736,1.736,0,0,1,2.015,1.375c1.182,3.669,2.509,7.291,3.78,10.932.745,2.131.745,2.131,3.058,2.234.31.014.62.037.93.043,1.7.032,1.751.031,1.751-1.566q0-8.727-.072-17.454c-.016-1.8-.392-2.139-2.057-1.716a15.934,15.934,0,0,1-2.755.318A8.359,8.359,0,0,0,83,58.353C81.275,59.714,79.1,59.47,77.2,59.427c-2.147-.048-4.324-.182-6.483-.206a51.68,51.68,0,0,1-5.3-.556,7.006,7.006,0,0,1-4.8-2.987c-1.148-1.555-.831-3.269.881-4.064,2.167-1.006,4.137-2.486,6.359-3.311,4.271-1.586,8.658-2.4,13.289-1.369,3.044.68,5.967,2.085,9.255,1.616,1.91-.273,1.965-.292,2.218-2.172.41-3.046-2.483-7.043-5.6-7.945a4.815,4.815,0,0,0-3.381.408A28.364,28.364,0,0,0,80.2,40.764a5.217,5.217,0,0,1-1.37.834c-.727.2-1.421.808-2.2.32-.96-.6.281-1.363-.04-2.215-1.651.806-2.869,2.188-4.595,2.639-.371.1-.707.331-1.079.427-.518.134-1.139.317-1.467-.257a1.288,1.288,0,0,1,.2-1.519c.559-.644,1.136-1.272,1.693-1.919a1.022,1.022,0,0,0,.18-1.03c-.968-.091-1.566.58-2.241,1.146-1.7,1.424-3.316,2.93-5.557,3.581a13.13,13.13,0,0,1-4.569.56c-.776-.049-1.65.027-1.834-.994s-.11-2.116.913-2.64c2.394-1.227,3.4-3.583,4.845-5.642a9.885,9.885,0,0,0-3.845,2.152A34.579,34.579,0,0,1,47.106,42.24a12.648,12.648,0,0,1-8.4-.231c-.858-.339-1.817-.667-1.981-1.753s.668-1.694,1.417-2.226a9.776,9.776,0,0,1,2.6-1.507c3.154-.982,5.8-2.869,8.561-4.558,1.655-1.014,3.76-1.392,4.766-3.338a4.755,4.755,0,0,0-3.12.459c-6.476,2.486-12.931,5.052-19.743,6.5a40.212,40.212,0,0,1-8.694,1.178,16.979,16.979,0,0,1-9.6-2.877,17.639,17.639,0,0,1-3.924-2.862c-1.629-1.907-1.348-3.075,1.051-3.9a11.871,11.871,0,0,1,2.007-.531c5.356-.855,10.765-1.3,16.12-2.193,4.1-.684,8.266-1.011,12.4-1.51.425-.051.952.1,1.262-.544-.691-1.022-1.854-.8-2.845-1.013C32.729,20,26.372,19.252,20.125,17.846c-3.821-.859-7.445-1.924-10.661-4.231A33.285,33.285,0,0,1,.989,4.626,7.156,7.156,0,0,1,.256,3.177C-.324,1.585.051,1.04,1.711.922a12.3,12.3,0,0,1,5.017.768C12.992,3.93,19.49,5.316,25.892,7.043,29.906,8.125,33.951,9.1,38,10.034c5.179,1.2,10.376,2.324,15.572,3.456.578.126,1.211.357,1.814-.143.078-.95-.716-1.264-1.323-1.676a32.089,32.089,0,0,1-4.371-3.746A4.584,4.584,0,0,1,48.653,6.4c-.372-.891-.063-1.369.927-1.238a15.861,15.861,0,0,1,4.635,1.361c6.237,2.915,12.807,4.967,19.229,7.4,2.308.874,4.6,1.8,6.9,2.675a13.517,13.517,0,0,1,3.92,2.791c1.152,1.007,1.1,2.289.621,3.623-1.215,3.348-.165,6.2,1.945,8.819a9.022,9.022,0,0,0,4.037,2.549c.779.3,1.193-.137,1.333-.83a7.264,7.264,0,0,0,.028-1.393c.013-3.56-.007-7.117-.331-10.671a2.241,2.241,0,0,0-1.143-1.835c-3.219-2.172-1.959-5.779.869-6.947,3.531-1.459,6.9-1.534,10.112.8a3.494,3.494,0,0,1,.043,5.657,3.832,3.832,0,0,0-1.775,3.478c.04,3.4-.229,6.8-.3,10.207-.038,1.887.164,1.971,2.042,1.355a8.924,8.924,0,0,0,5.705-10.179c-.108-.527-.277-1.044-.365-1.574-.331-2,.49-3.34,2.2-4.422,3.5-2.221,7.4-3.475,11.223-4.92,6.051-2.287,12.184-4.364,18.087-7.034.98-.443,2.029-.738,3.05-1.091.668-.231,1.519-.512,1.944.1.523.753-.172,1.489-.675,2.03a43.262,43.262,0,0,1-3.178,3.062c-.75.657-1.631,1.163-2.41,1.792-.394.317-1.081.628-.833,1.238.274.673.91.284,1.413.17,4.287-.974,8.58-1.927,12.862-2.922C161.74,7.9,172.638,5.077,183.444,1.906a37.677,37.677,0,0,1,6-1.733c1.16-.139,2.509-.551,3.42.744.878,1.249-.286,2.2-.765,2.9-2.276,3.291-4.739,6.524-8.08,8.8a31.8,31.8,0,0,1-11.275,4.654c-4.217.91-8.455,1.72-12.69,2.541-2.193.425-4.394.82-6.6,1.152a12.665,12.665,0,0,0-3.033.932,1.922,1.922,0,0,0,1.542.887c1.917.216,3.836.473,5.761.551,3.175.128,6.289.733,9.437,1.057,2.685.277,5.373.543,8.047.9,2.285.307,4.555.729,6.826,1.127a5.361,5.361,0,0,1,1.317.439c1.584.743,1.85,1.839.616,3.067A21.926,21.926,0,0,1,173.695,35.9a24.422,24.422,0,0,1-10.113-.052c-7.58-1.3-14.627-4.273-21.835-6.748-.944-.324-1.9-.608-2.862-.887-.116-.034-.275.078-.518.156a3.11,3.11,0,0,0,1.7,1.764c2.329,1.367,4.662,2.735,7.072,3.949,1.9.957,3.626,2.292,5.758,2.773a1.441,1.441,0,0,1,.628.279c.845.756,2.134,1.285,2.024,2.646s-1.344,1.811-2.449,2.174a14.738,14.738,0,0,1-9.334-.266,33.873,33.873,0,0,1-8.851-4.466,46.766,46.766,0,0,0-4.842-2.746c-.219-.116-.246-.914-.766-.312-.317.367-.229.663.087.992,1.338,1.392,2.653,2.806,3.993,4.2.263.273.668.427.884.725.445.613,1.053,1.244.683,2.091a1.972,1.972,0,0,1-1.995.962c-3.6-.016-6.993-.664-9.584-3.548a16.874,16.874,0,0,0-2.672-1.938,4.377,4.377,0,0,0,1.561,2.931c.513.553.943,1.087.451,1.821-.419.624-1.1.471-1.705.387a12.543,12.543,0,0,1-2.754-1.2c-.5-.195-1.166-.511-1.357.242-.4,1.564-1.327.988-2.132.586a21.878,21.878,0,0,1-4.211-2.357,6.194,6.194,0,0,0-9.431,1.492,6.509,6.509,0,0,0-1.5,4.472c.094.952.482,1.159,1.314,1.134,2.481-.074,4.963-.088,7.444-.156,7.884-.216,14.507,2.885,20.067,8.157a15.183,15.183,0,0,1,4.361,8.746,17.367,17.367,0,0,1-4.394,15.226c-3.14,3.494-7.263,5.386-11.762,6.573-1.1.29-2.518.134-3.091,1.637a9.736,9.736,0,0,0-.452,1.529c-.191.93.121,1.407,1.072,1.664.679.183,1.378.22,2.04.412a16.781,16.781,0,0,1,8.606,5.209c4.288,5.285,4.532,12.495-.137,17.558a19.62,19.62,0,0,1-6.107,3.934c-3.479,1.681-7.117,2.4-10.778,3.227-1.5.337-3.044.48-4.562.743a2.456,2.456,0,0,0-2.1,1.775c-1.328,3.637-2.822,7.2-2.442,11.214.173,1.828.24,1.924,2.077,1.45a13.274,13.274,0,0,0,6.38-3.955c4.32-4.548,9.27-8.113,15.519-9.532,1.1-.249,2.234-.628,3.41.372m-29.958,6.474c1.1-3.211,2.012-5.9,2.95-8.588q4-11.454,8.02-22.9c2.83-8.069,5.7-16.126,8.475-24.213.751-2.186,1.439-4.393,2.221-6.57.657-1.828.6-1.853-1.439-1.871-1.085-.01-2.178.079-3.254-.024-1.319-.127-1.919.421-2.311,1.658-1.119,3.527-2.265,7.052-3.578,10.511-2.709,7.135-4.944,14.432-7.55,21.6-1.172,3.223-2.267,6.474-3.533,10.1-1.24-3.444-2.366-6.473-3.423-9.527Q87.076,83.3,81.5,66.99c-.41-1.2-1.014-1.812-2.33-1.729-1.236.077-2.48,0-3.72.029-1.477.041-1.557.088-1.044,1.617q3.161,9.426,6.417,18.82c1.363,3.934,2.783,7.849,4.211,11.76,1.4,3.848,2.489,7.8,3.953,11.635,1.649,4.32,3.017,8.746,4.537,13.116.776,2.233,1.618,4.443,2.615,7.168m21.178-53.266a2.375,2.375,0,0,0,2.39-.151c3.988-2.427,5.927-6.187,4.6-11.534-.761-3.062-3.238-4.606-5.783-5.97-5.445-2.92-11.341-3.316-17.361-2.984-1.034.057-1.6.414-1.536,1.53.037.617.008,1.24-.011,1.859-.184,5.878.222,11.765-.329,17.638-.177,1.891.056,2.095,1.9,2.481,2.027.425,2.411.227,3.139-1.6.543-1.361,1.009-2.743,1.446-4.145,1.007-3.23,2.175-6.411,3.308-9.6.2-.558.389-1.155,1.223-1.175a66.839,66.839,0,0,1,11.786.615c-1.864,4.307-2.808,8.757-4.772,13.035M77.553,84.41A16.493,16.493,0,0,0,70.4,87.573c-3.081,2.61-3.287,7.2.685,9.437,3.188,1.792,6.352,1.338,9.61.487,1.006-.263,1.372-.593.925-1.755-1.43-3.72-2.706-7.5-4.068-11.333m26.959,29.119a7.663,7.663,0,0,0,4.351-.452c3.257-.995,6.369-2.261,8.214-5.475a5.689,5.689,0,0,0,.053-6.059c-1.123-2.02-2.972-2.8-5.047-3.34-1.989-.52-2-.564-2.659,1.291-1.64,4.646-3.257,9.3-4.912,14.034M93.553,132.964a26.126,26.126,0,0,0-1.993-8.692c-.228-.411-.474-.766-1.083-.552a7.245,7.245,0,0,0-4.3,6.078c0,2.99,2.011,5.308,5.468,6.32,1.759.515,1.86.449,1.9-1.3.015-.619,0-1.238,0-1.857m-3.176-48.2a51.721,51.721,0,0,0,2.685,7.255c0-2.178-.025-4.037.012-5.9.016-.838-.215-1.372-1.147-1.306-.457.032-.82-.491-1.55-.053m8.966,5.421.481.052c.379-.978.8-1.943,1.119-2.939.135-.418.115-.954-.535-1.018-.515-.051-1.158-.175-1.178.634a11,11,0,0,0,.113,3.272M72.915,53.021c-1.621-1.1-1.9-1.068-3.377.371a2.968,2.968,0,0,0,3.377-.371" transform="translate(0 0)" fill="#40a3c8"></path></g></g></g></svg>