<svg xmlns="http://www.w3.org/2000/svg" viewBox="0 0 363.06 36.14"><defs><style>.cls-1{fill:#56565a;}.cls-2{fill:#ffc42f;}</style></defs><title>Asset 2</title><g id="Layer_2" data-name="Layer 2"><g id="Layer_1-2" data-name="Layer 1"><path class="cls-1" d="M43.11,8.23V3.46H64.26V8.23H56.52v21H50.84v-21Z"/><path class="cls-1" d="M71.63,29.27V26.66h-.11A5.71,5.71,0,0,1,69,29a7.53,7.53,0,0,1-3.18.73,8.81,8.81,0,0,1-3.38-.55,4.9,4.9,0,0,1-2.08-1.53,6,6,0,0,1-1.06-2.42A14.82,14.82,0,0,1,59,22.07V10.58h5.13V21.13a6.52,6.52,0,0,0,.72,3.45,2.81,2.81,0,0,0,2.57,1.14,3.57,3.57,0,0,0,3-1.24,7,7,0,0,0,.94-4.11V10.58h5.13V29.27Z"/><path class="cls-1" d="M84.42,3.46V29.27H79.29V3.46Z"/><path class="cls-1" d="M99.08,3.46a15.85,15.85,0,0,1,3.36.32A7.19,7.19,0,0,1,105,4.85a4.81,4.81,0,0,1,1.68,2,6.88,6.88,0,0,1,.6,3,5.67,5.67,0,0,1-.89,3.26,6.35,6.35,0,0,1-2.62,2.13,6.22,6.22,0,0,1,3.56,2.4,7.13,7.13,0,0,1,1.18,4.14,7,7,0,0,1-.76,3.38,6.58,6.58,0,0,1-2,2.33,8.92,8.92,0,0,1-2.93,1.34,13.17,13.17,0,0,1-3.38.44H86.93V3.46ZM98.35,13.9a4.09,4.09,0,0,0,2.5-.72,2.72,2.72,0,0,0,1-2.35,3,3,0,0,0-.32-1.48,2.46,2.46,0,0,0-.87-.91A3.94,3.94,0,0,0,99.38,8a8.63,8.63,0,0,0-1.46-.12H92.61v6Zm.33,11a7.52,7.52,0,0,0,1.59-.17,4,4,0,0,0,1.34-.54,2.71,2.71,0,0,0,.92-1,3.53,3.53,0,0,0,.34-1.66,3.33,3.33,0,0,0-1.12-2.84,4.73,4.73,0,0,0-3-.85H92.61v7.09Z"/><path class="cls-1" d="M110.24,16.07a8.84,8.84,0,0,1,2-3.11,8.68,8.68,0,0,1,3-2,10.64,10.64,0,0,1,4-.7,10.83,10.83,0,0,1,4,.7,8.52,8.52,0,0,1,5,5.1,11.43,11.43,0,0,1,.69,4.07,11.23,11.23,0,0,1-.69,4,8.43,8.43,0,0,1-5,5.07,11.26,11.26,0,0,1-4,.68,11.06,11.06,0,0,1-4-.68,8.63,8.63,0,0,1-3-2,8.89,8.89,0,0,1-2-3.1,11.23,11.23,0,0,1-.69-4A11.43,11.43,0,0,1,110.24,16.07Zm4.66,6.25a6,6,0,0,0,.74,1.92,3.86,3.86,0,0,0,1.4,1.35,4.19,4.19,0,0,0,2.16.51,4.33,4.33,0,0,0,2.19-.51,3.81,3.81,0,0,0,1.41-1.35,5.77,5.77,0,0,0,.74-1.92,10.54,10.54,0,0,0,.22-2.18,10.83,10.83,0,0,0-.22-2.21A5.61,5.61,0,0,0,122.8,16a4.15,4.15,0,0,0-1.41-1.35,4.23,4.23,0,0,0-2.19-.52,4.09,4.09,0,0,0-2.16.52,4.21,4.21,0,0,0-1.4,1.35,5.82,5.82,0,0,0-.74,1.92,11.58,11.58,0,0,0-.21,2.21A11.27,11.27,0,0,0,114.9,22.32Z"/><path class="cls-1" d="M127.26,10.77h5.86l3.29,4.88,3.25-4.88h5.68l-6.15,8.75,6.91,9.94h-5.86l-3.9-5.89-3.91,5.89h-5.74l6.72-9.83Z"/><polygon class="cls-2" points="0 0 0 8.49 11.51 8.49 11.51 5.07 19.76 5.07 19.76 8.49 31.27 8.49 31.27 0 0 0"/><polygon class="cls-2" points="19.76 13.33 11.51 13.33 11.51 9.91 0 9.91 0 31.27 31.27 31.27 31.27 9.91 19.76 9.91 19.76 13.33"/><polygon class="cls-2" points="12.88 6.44 12.88 8.49 12.88 9.91 12.88 11.96 18.39 11.96 18.39 9.91 18.39 8.49 18.39 6.44 12.88 6.44"/><g id="Weidner_Logo_no_tagline" data-name="Weidner Logo no tagline"><polygon class="cls-1" points="230.94 4.13 226.72 21.89 226.65 21.89 222.24 4.13 216.94 4.13 212.46 21.67 212.39 21.67 208.31 4.13 202.64 4.13 209.46 29.9 215.2 29.9 219.5 12.36 219.57 12.36 223.94 29.9 229.57 29.9 236.5 4.13 230.94 4.13"/><path class="cls-1" d="M246.23,15.61a3.62,3.62,0,0,0-2.8-1,4.41,4.41,0,0,0-2,.42,3.71,3.71,0,0,0-2,2.32,5.88,5.88,0,0,0-.24,1.23h8.34a5.93,5.93,0,0,0-1.28-3m-5.8,9.82a5.26,5.26,0,0,0,6,.34,3.25,3.25,0,0,0,1.37-1.64h4.51a8.55,8.55,0,0,1-3.32,4.8,9.8,9.8,0,0,1-5.42,1.44,10.67,10.67,0,0,1-4-.7,8.32,8.32,0,0,1-3-2,9.17,9.17,0,0,1-1.9-3.11,11.48,11.48,0,0,1-.66-4,10.88,10.88,0,0,1,.68-3.9,9.07,9.07,0,0,1,5-5.2,9.8,9.8,0,0,1,3.88-.75,8.76,8.76,0,0,1,4.15.92,8.23,8.23,0,0,1,2.91,2.47,9.92,9.92,0,0,1,1.64,3.54,13.23,13.23,0,0,1,.37,4.15H239.17a5.18,5.18,0,0,0,1.26,3.61"/><rect class="cls-1" x="254.19" y="11.24" width="5.12" height="18.66"/><path class="cls-1" d="M274.58,18.3a5.32,5.32,0,0,0-.74-1.88,4.25,4.25,0,0,0-1.35-1.32,4,4,0,0,0-2.1-.5,4.18,4.18,0,0,0-2.12.5,4,4,0,0,0-1.39,1.34,5.65,5.65,0,0,0-.76,1.9,10.07,10.07,0,0,0-.24,2.22,9.38,9.38,0,0,0,.26,2.16,5.56,5.56,0,0,0,.81,1.93A4.39,4.39,0,0,0,268.36,26a3.76,3.76,0,0,0,2,.53,4.06,4.06,0,0,0,2.12-.51,3.88,3.88,0,0,0,1.35-1.35,5.85,5.85,0,0,0,.72-1.93,11.05,11.05,0,0,0,.22-2.24,10.72,10.72,0,0,0-.22-2.22m.22,9.22a5.31,5.31,0,0,1-2.37,2.19,8.68,8.68,0,0,1-7-.15,7.37,7.37,0,0,1-2.62-2.2,10.13,10.13,0,0,1-1.55-3.2,13.32,13.32,0,0,1-.52-3.75,12.59,12.59,0,0,1,.52-3.63,9.6,9.6,0,0,1,1.55-3.08,7.82,7.82,0,0,1,2.58-2.15,7.72,7.72,0,0,1,3.61-.81,7.33,7.33,0,0,1,3.16.7,5.5,5.5,0,0,1,2.37,2.08h.07V4.13h5.12V29.9h-4.87V27.52Z"/><path class="cls-1" d="M286.93,11.24v2.6H287a5.88,5.88,0,0,1,2.52-2.36,7.25,7.25,0,0,1,3.18-.74,8.61,8.61,0,0,1,3.38.56,5.06,5.06,0,0,1,2.07,1.55,6,6,0,0,1,1.06,2.42,14.63,14.63,0,0,1,.31,3.15V29.9h-5.12V19.36a6.45,6.45,0,0,0-.73-3.44,2.78,2.78,0,0,0-2.56-1.14,3.58,3.58,0,0,0-3,1.24,6.9,6.9,0,0,0-.94,4.1V29.9h-5.13V11.24Z"/><path class="cls-1" d="M313.11,15.61a3.63,3.63,0,0,0-2.8-1,4.41,4.41,0,0,0-2,.42,3.71,3.71,0,0,0-2,2.32,5.88,5.88,0,0,0-.24,1.23h8.34a5.93,5.93,0,0,0-1.28-3m-5.79,9.82a5.24,5.24,0,0,0,6,.34,3.25,3.25,0,0,0,1.37-1.64h4.51a8.55,8.55,0,0,1-3.32,4.8,9.8,9.8,0,0,1-5.42,1.44,10.67,10.67,0,0,1-4-.7,8.32,8.32,0,0,1-3-2,9.17,9.17,0,0,1-1.9-3.11,11.48,11.48,0,0,1-.66-4,10.88,10.88,0,0,1,.68-3.9,9.07,9.07,0,0,1,5-5.2,9.8,9.8,0,0,1,3.88-.75,8.83,8.83,0,0,1,4.16.92,8.28,8.28,0,0,1,2.9,2.47,9.92,9.92,0,0,1,1.64,3.54,13.23,13.23,0,0,1,.37,4.15H306.05a5.18,5.18,0,0,0,1.27,3.61"/><path class="cls-1" d="M325.81,11.24v3.47h.07a6.2,6.2,0,0,1,1-1.61,6.45,6.45,0,0,1,1.4-1.26A7.21,7.21,0,0,1,330,11a6.2,6.2,0,0,1,1.88-.28,4,4,0,0,1,1.12.18v4.76a7.63,7.63,0,0,0-.87-.12,8.27,8.27,0,0,0-1-.06,5.46,5.46,0,0,0-2.38.47,4.09,4.09,0,0,0-1.58,1.28,5.22,5.22,0,0,0-.84,1.9,10.16,10.16,0,0,0-.26,2.34V29.9h-5.12V11.24Z"/><path class="cls-2" d="M345.35,8.14a3.64,3.64,0,0,0-.74-.83,3.44,3.44,0,0,0-2.17-.76,3.83,3.83,0,0,0-1.89.43,3.6,3.6,0,0,0-1.26,1.16,5,5,0,0,0-.71,1.65,8.13,8.13,0,0,0-.22,1.92,7.53,7.53,0,0,0,.22,1.84,4.88,4.88,0,0,0,.71,1.61,3.58,3.58,0,0,0,1.26,1.15,3.94,3.94,0,0,0,1.89.43,3.06,3.06,0,0,0,2.37-.93,4.23,4.23,0,0,0,1-2.44h3.2a7.59,7.59,0,0,1-.65,2.55A6.2,6.2,0,0,1,347,17.85a5.85,5.85,0,0,1-2,1.22,7.41,7.41,0,0,1-2.55.42,7.69,7.69,0,0,1-3.1-.6A6.54,6.54,0,0,1,337,17.24a7.33,7.33,0,0,1-1.45-2.47,9,9,0,0,1-.5-3.06,9.3,9.3,0,0,1,.5-3.13A7.51,7.51,0,0,1,337,6.07a6.63,6.63,0,0,1,2.33-1.69,7.69,7.69,0,0,1,3.1-.61,7.56,7.56,0,0,1,2.35.36,6.45,6.45,0,0,1,2,1,5.67,5.67,0,0,1,1.44,1.7,6,6,0,0,1,.72,2.31h-3.2a2.89,2.89,0,0,0-.38-1"/><path class="cls-2" d="M355.69,7.84h.05l1.89,5.51h-3.9Zm-1.64-3.71-5.68,15h3.32l1.18-3.35h5.62l1.14,3.35h3.43l-5.62-15Z"/><rect class="cls-2" x="254.18" y="4.13" width="5.14" height="5.14"/></g><path class="cls-1" d="M160.91,3V13.84H161A5.54,5.54,0,0,1,162,12a6.28,6.28,0,0,1,1.56-1.3A6.7,6.7,0,0,1,165.5,10a8.47,8.47,0,0,1,2.05-.26,8.21,8.21,0,0,1,3.76.81A7.65,7.65,0,0,1,174,12.68a9.26,9.26,0,0,1,1.58,3.19,14.67,14.67,0,0,1,0,7.67A9.26,9.26,0,0,1,174,26.73a7.51,7.51,0,0,1-2.66,2.17,8.47,8.47,0,0,1-3.76.79,8,8,0,0,1-4.13-1.07,6.1,6.1,0,0,1-2.62-3h-.07v3.59H158.6V3ZM173.4,16.79a8,8,0,0,0-1.1-2.59,6.17,6.17,0,0,0-1.92-1.85,5.34,5.34,0,0,0-2.83-.71,5.9,5.9,0,0,0-5.15,2.56,7.5,7.5,0,0,0-1.14,2.59,12.6,12.6,0,0,0-.35,2.92,12.45,12.45,0,0,0,.35,2.91,7.5,7.5,0,0,0,1.14,2.59,6,6,0,0,0,2,1.85,6.18,6.18,0,0,0,3.1.72,5.34,5.34,0,0,0,2.83-.72,6,6,0,0,0,1.92-1.85,8,8,0,0,0,1.1-2.59,12.45,12.45,0,0,0,.35-2.91A12.6,12.6,0,0,0,173.4,16.79Z"/><path class="cls-1" d="M179.38,10.24l6.24,16.14,5.83-16.14h2.31L185.55,32c-.35.81-.67,1.48-1,2a4.59,4.59,0,0,1-1,1.25,3.13,3.13,0,0,1-1.25.66,7,7,0,0,1-1.81.2l-1.09,0a2.74,2.74,0,0,1-.68-.13V34c.27.05.54.1.79.13a5.16,5.16,0,0,0,.79.06,3.25,3.25,0,0,0,1.27-.22,2.75,2.75,0,0,0,.86-.61,3.68,3.68,0,0,0,.62-.93c.17-.37.36-.77.55-1.21l.81-2.13-7.56-18.86Z"/></g></g></svg>